<svg width="1001" height="606" viewBox="0 0 1001 606" fill="none" xmlns="http://www.w3.org/2000/svg">
<path fill-rule="evenodd" clip-rule="evenodd" d="M732.739 0.00297721C731.693 -0.00450877 730.623 0.00212975 729.529 0.0228103H729.528C723.691 0.133048 717.141 0.641009 709.558 1.5188C698.658 2.78058 686.06 7.32757 673.869 11.5973C661.679 15.8671 649.868 19.8362 641.248 20.1815C606.395 21.5777 573.975 23.2758 542.216 24.5381C541.951 24.4191 541.665 24.3558 541.375 24.3521C541.013 24.3481 540.656 24.4372 540.338 24.6108C537.581 24.7189 534.821 24.8282 532.072 24.929C531.787 24.7384 531.45 24.639 531.107 24.6439C530.742 24.6502 530.389 24.7743 530.101 24.9976C517.973 25.434 505.906 25.7959 493.809 26.0324L493.694 20.9378C493.684 19.745 492.691 18.7963 491.499 18.8409C490.332 18.8849 489.421 19.8659 489.464 21.0328L489.578 26.1084C469.428 26.4542 449.153 26.4533 428.291 25.9068H428.287C426.884 25.8683 423.258 25.982 417.802 25.9142C412.344 25.8462 405.224 25.6035 397.448 24.8778C381.896 23.4263 363.713 19.9732 351.129 12.3999C348.247 10.6648 348.177 10.403 344.245 8.41525C341.723 7.13008 339.806 10.9236 342.336 12.1924C346.158 14.1242 345.931 14.2106 348.947 16.0258C355.003 19.6708 362.051 22.3628 369.404 24.3612L366.81 54.4496C360.936 53.9713 355.871 53.4608 352.004 52.7553C340.837 50.718 333.84 46.8202 326.72 44.0942C322.27 42.3905 317.72 41.2214 312.371 41.4527C309.162 41.5915 305.665 42.2341 301.73 43.5686C287.249 48.4797 267.911 56.363 267.911 56.363C265.283 57.4211 266.889 61.3622 269.508 60.2824C269.508 60.2824 288.829 52.4127 303.09 47.5763C312.752 44.2995 318.5 45.4789 325.207 48.0466C331.913 50.6143 339.446 54.766 351.244 56.9184C355.37 57.671 360.542 58.1989 366.446 58.6806L365.714 67.1598L363.317 66.9548C363.279 66.9516 363.24 66.9496 363.202 66.949C363.202 66.949 355.557 66.7613 352.365 66.0341C340.546 63.3415 336.176 62.1998 318.71 53.2611C315.671 51.7054 311.826 52.3873 308.055 53.3752C304.284 54.3631 300.575 55.8594 298.257 56.7879C285.916 61.7301 266.276 69.9295 266.276 69.9294C264.16 70.7852 265.484 73.9565 267.58 73.0537C267.58 73.0537 272.267 71.1028 277.563 68.9095C296.49 76.2217 342.836 92.0927 363.023 99.6005L360.247 133.122C354.478 134.43 348.617 135.74 342.57 137.059C342.438 137.088 342.309 137.13 342.185 137.184C316.393 126.033 275.97 108.697 250.939 98.6789C225.395 88.4557 173.873 69.6765 173.873 69.6765C173.608 69.5757 173.326 69.5291 173.043 69.5393C170.702 69.6222 170.21 72.8838 172.423 73.6529C172.423 73.6529 223.985 92.4494 249.366 102.607C281.817 115.595 338.292 140.08 356.572 148.034L354.58 155.585L319.781 142.369L318.879 144.743L353.929 158.054L350.443 171.268L292.935 151.402L291.553 155.402L349.36 175.372L342.83 200.123C342.798 200.243 342.78 200.367 342.775 200.492L341.975 221.974C341.265 221.719 340.587 221.478 340.091 221.314C339.481 221.112 339.174 220.987 338.586 220.898C325.182 218.881 290.263 213.911 270.276 214.098C253.2 214.258 236.698 218.553 220.272 220.361V224.622C237.276 222.817 253.788 218.484 270.315 218.329C289.544 218.149 324.618 223.076 337.957 225.083C337.739 225.05 338.219 225.153 338.763 225.332C339.307 225.512 340.054 225.774 340.964 226.104C341.205 226.192 341.546 226.321 341.809 226.418L340.659 257.286C340.436 263.271 339.454 268.301 337.667 273.588L337.651 273.592C336.041 273.876 335.348 275.8 336.406 277.046C334.89 280.912 332.964 285.039 330.598 289.861C329.547 291.906 332.663 293.435 333.637 291.352C335.745 287.056 337.53 283.243 339.003 279.63L351.464 291.425L332.617 301.812L329.013 299.363C328.803 299.216 328.554 299.136 328.298 299.133C327.031 299.119 326.527 300.766 327.585 301.463L337.587 308.259L312.125 325.725C311.957 325.641 311.805 325.568 311.632 325.48C311.318 325.315 310.968 325.231 310.614 325.237C308.388 325.269 307.714 328.273 309.713 329.253C315.21 332.049 318.913 333.406 323.056 334.045C327.067 334.663 331.454 334.641 338.372 334.827L346.578 340.072L346.046 403.923L339.099 403.89L339.115 402.456V402.452C339.115 402.448 339.491 374.685 339.462 360.772C339.456 357.329 339.335 350.502 339.335 350.502C339.322 349.787 338.721 349.223 338.006 349.257V349.258C337.615 349.277 337.255 349.474 337.029 349.794L326.47 364.737C326.322 364.946 326.241 365.194 326.237 365.45L325.522 411.03C325.525 411.006 325.525 410.984 325.527 410.96L325.522 411.063L325.522 411.03C325.298 413.429 325.529 415.203 326.161 416.788C326.797 418.389 327.754 419.738 328.916 421.602C329.039 421.798 329.213 421.958 329.42 422.063L336.304 425.546L336.246 430.576C336.212 432.282 338.778 432.312 338.785 430.606L338.829 426.824L343.202 429.036C341.501 430.2 340.123 431.14 340.123 431.14C338.617 432.135 339.506 434.481 341.293 434.228C341.473 434.693 341.811 435.08 342.249 435.32C342.277 435.337 342.307 435.353 342.336 435.368C343.292 435.851 343.994 436.218 344.557 436.526H344.558C344.839 436.68 345.086 436.82 345.312 436.951H345.313C345.539 437.082 345.744 437.205 345.943 437.328H345.944C346.343 437.572 346.717 437.814 347.179 438.107H347.18C347.642 438.401 348.193 438.747 348.947 439.201C355.003 442.845 362.051 445.537 369.404 447.536L365.714 490.336L363.317 490.131C363.279 490.127 363.24 490.125 363.202 490.124C363.202 490.124 355.557 489.937 352.365 489.21C340.546 486.517 336.176 485.375 318.71 476.437C315.671 474.881 311.826 475.563 308.055 476.551C304.284 477.539 300.575 479.035 298.257 479.963C285.916 484.906 266.276 493.105 266.276 493.105C264.163 493.962 265.485 497.129 267.581 496.229C267.581 496.229 287.223 488.028 299.515 483.106C301.837 482.176 305.429 480.738 308.913 479.825C312.396 478.913 315.758 478.728 317.168 479.45C334.738 488.442 339.761 489.811 351.613 492.511C355.678 493.437 362.921 493.505 363.063 493.507L365.431 493.709L360.123 557.788L357.796 569.578C357.358 571.793 360.681 572.449 361.118 570.235L363.463 558.35C363.475 558.288 363.484 558.225 363.489 558.163L368.804 493.999L471.332 502.774C483.926 503.852 488.833 503.845 499.086 497.726C509.346 491.603 514.588 483.754 519.296 475.536C523.164 468.783 526.686 461.659 529.867 455.515C530.533 454.23 531.019 453.326 531.544 452.359C533.523 452.287 535.509 452.21 537.491 452.134C533.897 458.502 528.528 468.373 523.955 477.346C521.639 481.889 519.533 486.19 517.965 489.697C517.181 491.45 516.531 493.002 516.051 494.313C515.571 495.623 515.24 496.613 515.154 497.665C513.643 516.068 511.121 542.28 509.729 561.097C508.628 575.988 508.301 590.844 508.508 603.684C508.501 606.557 512.837 606.488 512.739 603.616C512.534 590.901 512.859 576.156 513.95 561.41C515.335 542.679 517.856 516.47 519.372 498.01C519.384 497.857 519.598 496.932 520.025 495.768C520.451 494.604 521.069 493.122 521.828 491.425C523.346 488.031 525.429 483.773 527.725 479.268C532.318 470.257 537.767 460.241 541.325 453.946C541.969 452.807 542.038 452.815 542.555 451.937C574.295 450.674 606.663 448.978 641.418 447.586C649.464 447.263 659.026 444.354 669.003 440.939C667.101 447.59 665.722 453.046 661.7 457.94C657.389 463.186 649.795 468.146 634.475 473.112C618.869 478.171 609.722 480.74 604.292 483.407C601.577 484.74 599.633 486.184 598.609 488.252C597.585 490.319 597.729 492.613 598.311 495.042C598.945 497.826 603.124 496.823 602.426 494.056C601.944 492.043 601.993 490.954 602.401 490.13C602.809 489.307 603.825 488.351 606.157 487.205C610.822 484.915 620.119 482.214 635.78 477.138C651.496 472.043 659.943 466.744 664.97 460.627C669.997 454.51 671.378 447.875 673.468 440.722C673.599 440.291 673.59 439.83 673.441 439.405C674.051 439.191 674.658 438.981 675.27 438.767C677.834 437.869 680.406 436.97 682.969 436.09C687.266 453.941 693.259 474.014 688.207 489.087C683.812 502.2 677.885 512.593 672.092 521.426C670.455 523.804 674.103 526.195 675.63 523.746C681.532 514.746 687.674 503.994 692.22 490.432C697.97 473.276 691.26 452.453 686.995 434.732C691.472 433.245 695.874 431.878 700.058 430.821L745.724 468.382C745.835 468.473 745.955 468.553 746.081 468.62L759.22 475.552C761.731 476.922 763.743 473.11 761.195 471.81L748.246 464.977L705.298 429.649C706.927 429.335 708.516 429.075 710.046 428.898C737.466 425.724 749.938 427.252 765.02 435.032C765.168 435.167 765.333 435.279 765.513 435.367C769.334 437.299 769.107 437.385 772.123 439.2C785.743 447.397 804.377 450.786 820.231 452.266C828.158 453.006 835.389 453.251 840.926 453.32C846.462 453.389 850.473 453.288 851.35 453.312C876.657 454.01 923.986 454.532 957.787 450.063C960.657 449.751 960.085 445.425 957.233 445.869C923.985 450.264 876.685 449.777 851.467 449.082C850.747 449.063 849.42 449.083 847.58 449.098C847.584 446.888 847.647 392.189 847.571 386.548C847.505 381.723 847.491 377.684 847.522 374.108C848.952 372.911 850.308 371.755 851.507 370.687C854.649 367.885 856.919 365.632 858.163 363.765C868.807 347.788 868.239 331.73 869.204 318.545C870.977 294.324 873.686 264.835 876.777 233.584L889.653 226.818C891.666 225.796 890.893 222.753 888.635 222.816C888.303 222.826 887.977 222.913 887.684 223.072L877.281 228.538C880.032 200.909 883.047 172.095 885.984 144.308C886.106 143.294 885.309 142.403 884.287 142.413C883.418 142.422 882.697 143.087 882.618 143.952C879.601 172.485 876.5 202.114 873.69 230.425L836.359 250.039C833.704 248.97 818.551 242.87 801.509 236.102C792.216 232.411 782.817 228.704 775.519 225.885C772.803 224.835 770.515 223.966 768.492 223.207L769.326 200.805L769.732 199.265L824.623 210.636C826.303 211.015 826.83 208.47 825.138 208.15L770.381 196.807L782.888 149.4C784.293 150.012 787.894 151.578 787.894 151.578C790.493 152.743 792.209 148.816 789.588 147.7C789.588 147.7 785.727 146.021 783.981 145.26L786.204 136.833C836.797 125.308 877.83 113.866 925.248 97.9549C936.767 94.0899 946.829 89.1554 955.974 86.3705C965.119 83.5856 973.128 82.8879 981.299 87.0647C996.499 94.8348 1010.44 106.23 1021.67 112.66C1024.13 114.1 1026.26 110.38 1023.77 108.988C1013.12 102.888 998.977 91.3496 983.225 83.2975C978.542 80.9038 973.831 79.926 969.086 79.9137C964.34 79.9015 959.56 80.8546 954.741 82.3222C945.103 85.2573 935.089 90.1884 923.902 93.9422C877.103 109.645 836.629 120.965 786.884 132.34L789.557 100.073L858.897 106.404C860.589 106.565 860.821 104.023 859.128 103.875L789.766 97.5425L790.853 84.4207L840.821 88.6161C842.504 88.7518 842.715 86.2319 841.034 86.0853L791.063 81.8899L791.979 70.8229L894.508 79.5988C907.102 80.6769 912.008 80.6689 922.261 74.5505C924.338 73.311 926.234 71.9914 927.978 70.6088C951.528 72.6375 970.355 74.193 976.991 74.572C979.83 74.758 980.074 70.4853 977.233 70.3468C971.142 69.999 954.087 68.5984 932.329 66.7317C937.068 61.9882 940.451 56.7259 943.257 51.4221C947.733 42.9609 950.826 34.3961 955.691 27.3168C956.491 26.1875 955.672 24.6275 954.288 24.6455C953.729 24.6527 953.211 24.9347 952.901 25.3993C947.7 32.9668 944.595 41.6516 940.264 49.8385C937.132 55.7601 933.391 61.4186 927.808 66.3415C894.806 63.4977 852.358 59.712 818.859 56.6961C809.511 55.8545 800.849 55.2899 793.361 54.7199L796.123 22.6768C796.225 21.6608 795.411 20.7869 794.39 20.8163V20.8154C793.522 20.8408 792.814 21.5194 792.751 22.3858L789.987 54.4496C784.112 53.9713 779.048 53.4608 775.18 52.7553C769.856 51.7839 765.485 50.389 761.592 48.9004C761.47 48.7971 761.337 48.7078 761.196 48.6343L748.246 41.8015L705.298 6.47376C706.927 6.15924 708.516 5.89954 710.046 5.72246C740.032 2.25128 752.139 4.39797 769.335 14.2017C771.799 15.6449 773.928 11.91 771.431 10.5253C758.96 3.41519 748.434 0.11524 732.739 0.00297721ZM700.059 7.64493L741.565 41.7858C739.655 41.4921 737.664 41.3611 735.547 41.4527C732.337 41.5915 728.841 42.2341 724.906 43.5686C714.068 47.2441 700.517 52.582 694.381 55.0365C695.033 40.7687 690.289 25.2399 686.995 11.5568C691.472 10.0698 695.875 8.70201 700.059 7.64493ZM682.969 12.9148C686.279 26.6682 690.592 41.7376 690.09 54.8282L663.21 39.4013C663.836 38.7599 664.427 38.1112 664.97 37.4515C669.997 31.3344 671.378 24.6993 673.468 17.5466C673.599 17.1158 673.59 16.6543 673.441 16.2291C674.051 16.0159 674.658 15.8053 675.27 15.591C677.834 14.693 680.406 13.7943 682.969 12.9148ZM669.003 17.7631C667.101 24.4146 665.722 29.8706 661.7 34.7645C657.389 40.0104 649.795 44.9704 634.475 49.9369C618.869 54.9956 609.722 57.5646 604.292 60.2311C601.577 61.5644 599.633 63.0087 598.609 65.0761C597.812 66.6847 597.727 68.4316 598.001 70.2716C594.605 69.37 590.099 68.4925 584.849 68.3045C575.233 67.9602 564.142 70.9214 554.061 70.3468H554.057C554.047 70.3463 554.03 70.3449 554.021 70.3443C554.011 70.3437 554.002 70.3431 553.993 70.3427C552.71 70.269 550.815 70.1368 548.65 69.9782C542.842 68.8719 538.446 65.4828 535.836 60.9667C532.494 55.1861 532.129 47.5236 536.163 40.2451C536.257 40.0802 536.328 39.9034 536.375 39.7195C538.752 35.3504 540.894 31.5102 542.47 28.7649C574.237 27.5015 606.632 25.8035 641.418 24.4099C649.464 24.0877 659.026 21.1783 669.003 17.7631L669.003 17.7631ZM372.73 25.21C380.896 27.1835 389.307 28.3682 397.055 29.0913C398.3 29.2076 399.521 29.3074 400.728 29.4005L399.96 36.8217L371.951 34.2389L372.73 25.21ZM537.491 28.9583C534.248 34.7046 529.576 43.2721 525.326 51.499C522.711 56.5611 520.268 61.4673 518.437 65.477C518.118 66.1752 517.844 66.8076 517.564 67.4482C514.756 67.2099 512.028 66.9783 509.019 66.7201C513.328 62.2781 516.414 57.3894 519.296 52.3602C523.851 44.4077 527.928 35.9503 531.525 29.1839C533.511 29.1116 535.502 29.0345 537.491 28.9583ZM527.626 29.3186C524.212 35.844 520.463 43.5115 516.358 50.6774C513.061 56.4333 509.69 61.7051 504.563 66.3358C500.138 65.9544 495.817 65.5831 491.088 65.1712L494.095 39.5963C494.106 39.4987 494.111 39.4004 494.108 39.3021L493.904 30.265C505.15 30.0452 516.368 29.7132 527.626 29.3186H527.626ZM403.261 29.5839C408.735 29.9477 413.698 30.0947 417.749 30.1451C419.795 30.1707 421.533 30.1693 423.081 30.1633L427.455 39.3567L402.488 37.0548L403.261 29.5839ZM428.174 30.1369H428.178C432.914 30.261 437.617 30.3556 442.298 30.4262L440.094 53.7397C439.923 53.7258 439.759 53.7088 439.58 53.6992H439.579C438.907 53.6632 438.186 53.6632 437.485 53.7421C437.368 53.7553 437.252 53.7749 437.136 53.7926L425.885 30.1468C426.981 30.1365 427.85 30.128 428.174 30.1369H428.174ZM489.674 30.3402L489.875 39.2492L486.871 64.8017C481.534 64.3356 476.079 63.8575 470.518 63.3677L473.331 30.541C478.795 30.5023 484.24 30.4334 489.674 30.3402ZM444.844 30.4592C451.189 30.5425 457.49 30.5807 463.759 30.5766L445.301 54.7687C444.528 54.4396 443.64 54.2199 442.615 54.0496L444.844 30.4592ZM470.782 30.5551L467.988 63.1462C461.192 62.547 454.301 61.9353 447.409 61.3229L447.666 57.9318C447.669 57.8949 447.67 57.858 447.67 57.821C447.664 57.306 447.506 56.8253 447.252 56.3953L466.955 30.5725C468.232 30.5688 469.507 30.562 470.782 30.5551L470.782 30.5551ZM371.733 36.7688L385.031 37.9946L383.388 55.6952C378.696 55.3428 374.259 55.03 370.186 54.7199L371.733 36.7688ZM387.559 38.2276L399.699 39.3467L397.884 56.8928C397.2 56.8313 396.36 56.757 395.684 56.6961C392.32 56.3933 389.084 56.1345 385.92 55.8903L387.559 38.2276ZM402.227 39.5798L421.678 41.3734L420.053 58.8781C413.438 58.2858 406.592 57.675 400.413 57.1193L402.227 39.5798ZM424.206 41.6064L428.724 42.023L434.839 54.8753C434.464 55.3008 434.189 55.8621 434.166 56.4655L434.171 56.3953L433.822 60.1113C429.937 59.7647 426.391 59.4454 422.583 59.1046L424.206 41.6064ZM660.601 41.8064L689.773 58.5492C689.778 58.5879 689.784 58.6265 689.791 58.6649C689.489 61.1797 688.98 63.6054 688.207 65.9118C688.043 66.4001 687.873 66.8773 687.705 67.3582L653.81 46.4085C656.453 44.9161 658.697 43.387 660.601 41.8064ZM737.107 45.5778C741.14 45.5976 744.61 46.6023 748.382 48.0466C755.089 50.6143 762.622 54.766 774.42 56.9184C778.545 57.671 783.718 58.1989 789.621 58.6806L788.89 67.1598L786.493 66.9548C786.454 66.9516 786.416 66.9496 786.377 66.949C786.377 66.949 778.732 66.7613 775.54 66.0341C763.721 63.3415 759.352 62.1998 741.886 53.2611C738.846 51.7054 735.002 52.3873 731.23 53.3752C727.459 54.3631 723.75 55.8594 721.432 56.7879C710.26 61.2624 694.749 67.7248 691.602 69.0368C691.81 68.4466 692.018 67.8577 692.22 67.2565C693.033 64.8301 693.59 62.3282 693.946 59.7741C697.135 58.4838 713.393 51.9417 726.265 47.5763C730.492 46.1427 733.97 45.5625 737.107 45.5778ZM650.331 48.2384L655.981 51.7304L648.924 66.1614L641.85 62.8032L638.565 53.0305C643.112 51.4619 646.994 49.8699 650.331 48.2384ZM658.152 53.071L671.941 61.594L665.722 74.1372L651.217 67.2507L658.152 53.071ZM529.12 53.3735C529.435 56.8484 530.48 60.158 532.172 63.0842C533.48 65.3478 535.181 67.3772 537.209 69.0798C532.727 68.7179 527.704 68.3028 522.026 67.8243C522.118 67.6196 522.19 67.4454 522.286 67.235C524.068 63.3324 526.489 58.4669 529.086 53.4413C529.097 53.4189 529.109 53.3959 529.12 53.3735ZM636.157 53.8355L639.243 63.014L611.453 74.967C609.113 74.1054 606.279 73.0572 604.45 72.3858C604.212 72.2988 603.508 72.0179 602.475 71.6527C602.507 71.3943 602.49 71.1323 602.426 70.8799C601.944 68.8677 601.993 67.7786 602.401 66.9548C602.809 66.1309 603.825 65.1751 606.157 64.0298C610.822 61.7391 620.119 59.0385 635.78 53.962C635.909 53.92 636.029 53.8776 636.157 53.8355ZM314.219 55.8349C314.438 55.83 314.65 55.8305 314.855 55.8357C315.836 55.8609 316.639 56.004 317.168 56.2746C334.738 65.2667 339.761 66.6351 351.613 69.3352C355.678 70.2611 362.921 70.3298 363.063 70.3311L365.431 70.5336L363.24 96.9763C343.533 89.6719 300.895 75.0357 280.978 67.4987C287.036 64.9981 293.972 62.1502 299.514 59.9303C301.836 59.0003 305.429 57.5624 308.913 56.6498C310.818 56.1508 312.686 55.8693 314.219 55.8349ZM737.395 55.8349C737.614 55.83 737.826 55.8305 738.03 55.8357C739.011 55.8609 739.815 56.004 740.344 56.2746C749.971 61.2015 755.826 63.8338 761.107 65.6564L755.205 85.806C736.524 79.2071 716.272 72.0845 704.154 67.4987C710.211 64.9981 717.147 62.1502 722.69 59.9303C725.012 59.0003 728.605 57.5624 732.088 56.6498C733.993 56.1508 735.862 55.8693 737.395 55.8349ZM438.568 56.2217C439.413 56.2132 440.358 56.3009 441.058 56.3895C442.654 56.5918 443.853 56.8767 444.49 57.1838C445.112 57.4836 445.122 57.5439 445.126 57.835L444.879 61.099C441.938 60.8375 439.274 60.5976 436.35 60.3369L436.699 56.6333C436.701 56.6099 436.702 56.5865 436.704 56.563C436.704 56.5591 436.701 56.5609 436.701 56.5581C436.713 56.5553 436.728 56.5495 436.757 56.5316C436.894 56.4484 437.277 56.3211 437.77 56.2655C438.016 56.2377 438.287 56.2245 438.568 56.2217H438.568ZM369.82 58.95C373.891 59.2589 378.287 59.5651 382.93 59.9096L382.114 68.564L369.088 67.4491L369.82 58.95ZM792.996 58.95C800.537 59.5222 809.16 60.0714 818.48 60.9105C850.495 63.7928 890.539 67.369 922.855 70.1658C922.106 70.6692 921.332 71.1628 920.526 71.6436C910.637 77.5451 907.35 77.3004 894.797 76.2258L792.264 67.4491L792.996 58.95ZM385.461 60.103C388.651 60.3465 391.913 60.6052 395.304 60.9105C395.972 60.9706 396.798 61.044 397.473 61.1047L396.629 69.8063L384.644 68.7806L385.461 60.103ZM400.001 61.3312C406.269 61.895 413.202 62.5138 419.911 63.1148L419.038 71.7246L399.159 70.0228L400.001 61.3312ZM674.11 62.9346L686.526 70.608C685.023 74.5548 683.388 78.2439 681.672 81.7106L668.015 75.2266L674.11 62.9346ZM422.44 63.3413C426.163 63.6746 429.629 63.9869 433.424 64.3257L432.618 72.8867L421.568 71.9412L422.44 63.3413ZM435.954 64.5521C438.902 64.8151 441.594 65.057 444.559 65.3208L443.913 73.8537L435.149 73.1041L435.954 64.5521ZM640.792 65.1117L647.808 68.4425L639.518 85.3927C630.496 82.0073 622.188 78.9269 614.913 76.2424L640.792 65.1117ZM447.089 65.5456C454 66.1601 460.904 66.7727 467.718 67.3739L466.854 75.8175L446.442 74.0703L447.089 65.5456ZM763.52 66.449C766.995 67.5271 770.43 68.3422 774.789 69.3352C778.853 70.2611 786.097 70.3298 786.238 70.3311L788.605 70.5336L787.665 81.8924C787.003 82.3475 786.924 83.2953 787.503 83.8529L786.416 96.9763C782.507 95.5276 777.558 93.7467 772.197 91.8321C771.981 91.658 771.714 91.5593 771.437 91.5511C771.429 91.5513 771.421 91.5515 771.413 91.5519C767.124 90.0216 762.38 88.3425 757.603 86.654L763.52 66.449ZM470.247 67.5954C475.965 68.0993 481.591 68.5937 487.071 69.0723L486.259 76.4201C482.412 77.1384 478.347 76.8015 471.621 76.2258L469.384 76.0341L470.247 67.5954ZM700.739 68.9095C701.505 69.2056 702.29 69.508 703.143 69.8311L695.906 86.1134L686.286 81.8866C687.604 79.13 688.869 76.2343 690.06 73.1892C690.299 73.1937 690.536 73.1475 690.756 73.0537C690.756 73.0537 695.443 71.1028 700.739 68.9095ZM489.6 69.2938C493.129 69.6016 496.302 69.874 499.674 70.1658C498.931 70.668 498.159 71.161 497.351 71.6436C493.968 73.662 491.359 74.9615 488.886 75.7547L489.6 69.2938ZM650.101 69.5319L664.594 76.4126L656.882 91.9635C652.044 90.1122 646.972 88.1964 641.905 86.2911L650.101 69.5319ZM504.765 70.6055C508.625 70.9381 512.336 71.2565 515.898 71.5593C515.503 72.6521 515.23 73.5566 515.154 74.4885C514.79 78.9258 514.364 83.8319 513.912 88.9641C509.674 90.6764 505.302 92.4067 500.726 93.9422C495.866 95.5728 491.093 97.142 486.352 98.6831L488.496 79.2839C491.727 78.4713 494.977 77.0025 499.086 74.5505C501.175 73.3035 503.053 71.9842 504.765 70.6055ZM368.804 70.8229L381.797 71.9346L380.757 82.9702L367.887 81.8899L368.804 70.8229ZM707.113 71.3172C714.394 74.0181 723.744 77.3621 733.63 80.8667L719.623 117.581C713.446 114.962 707.311 112.375 701.359 109.884L698.983 89.6096L707.113 71.3172ZM520.278 71.9288C532.066 72.924 542.026 73.739 548.318 74.1984C550.101 74.5126 551.973 74.6473 553.923 74.5761C564.93 75.1812 576.152 72.2278 584.698 72.5338C589.627 72.7103 593.876 73.546 597.045 74.3951C597.315 74.4675 597.564 74.5385 597.816 74.61L583.33 97.6243C576.194 92.7481 568.356 87.5435 560.049 83.2975C555.367 80.9038 550.655 79.926 545.909 79.9137C541.164 79.9015 536.384 80.8546 531.565 82.3222C527.251 83.6361 522.853 85.357 518.316 87.1862C518.696 82.8448 519.059 78.6488 519.372 74.8348C519.386 74.666 519.646 73.5892 520.154 72.2445C520.192 72.1458 520.239 72.0314 520.278 71.9288ZM384.326 72.1511L396.303 73.1768L395.236 84.186L383.287 83.1826L384.326 72.1511ZM398.833 73.3934L418.697 75.0935L417.585 86.0622L397.766 84.3984L398.833 73.3934ZM421.226 75.3101L438.057 76.7507L435.246 103.811L418.491 102.281L421.226 75.3101ZM601.147 75.6729C601.981 75.9717 602.616 76.2209 602.992 76.3589C605.208 77.1721 608.531 78.3999 611.478 79.4864C611.472 79.735 611.469 79.891 611.461 80.1997C611.424 81.6269 611.363 83.6737 611.261 86.1085C611.058 90.978 610.692 97.4013 610.038 103.507C609.908 104.72 609.15 106.866 608.411 108.594C608.162 109.177 607.929 109.688 607.714 110.148C604.106 109.344 600.244 108.393 596.381 106.423C593.204 104.397 589.758 102.032 586.125 99.5385L601.147 75.6729ZM440.587 76.9672L446.257 77.4524L456.343 97.8805C457.742 100.889 458.111 102.287 459.334 103.371C460.385 104.302 461.632 104.558 463.855 105.141L463.786 105.818C454.738 108.594 445.768 111.238 436.763 113.788L440.587 76.9672ZM666.887 77.5011L680.521 83.9752C677.87 89.0841 675.063 93.6993 672.281 97.9557C668.369 96.4016 663.974 94.6912 659.262 92.8809L666.887 77.5011ZM449.214 77.7053L466.509 79.1864L464.119 102.565C462.219 102.037 461.383 101.793 461.019 101.471C460.566 101.07 460.078 99.8896 458.646 96.8102C458.642 96.8013 458.637 96.7925 458.633 96.7837L449.214 77.7053ZM469.04 79.403L471.332 79.5988C477.526 80.129 481.859 80.3941 485.884 79.8013L483.702 99.5435C477.882 101.424 472.13 103.24 466.422 105.003L466.441 104.818C466.599 104.524 466.634 104.178 466.539 103.858L469.04 79.403ZM613.995 80.4138C617.656 81.7653 621.237 83.0892 625.487 84.6695C625.483 84.8575 625.481 84.9507 625.476 85.1638C625.439 86.744 625.378 88.995 625.276 91.6337C625.073 96.9111 624.707 103.743 624.053 109.843C623.923 111.056 623.166 113.202 622.426 114.93C622.331 115.153 622.242 115.346 622.15 115.555C620.639 114.589 618.961 113.629 616.882 112.707C614.897 111.827 612.643 111.263 610.245 110.722C610.406 110.369 610.574 109.995 610.746 109.592C611.524 107.774 612.366 105.611 612.562 103.778C613.225 97.5839 613.593 91.1174 613.798 86.2143C613.897 83.833 613.958 81.844 613.995 80.4138ZM736.024 81.7147C742.257 83.9214 748.308 86.0631 754.49 88.2467L742.98 127.549C736.167 124.627 729.119 121.614 721.962 118.575L736.024 81.7147ZM545.826 84.1075C549.993 84.107 554.038 84.9763 558.124 87.0647C566.204 91.1953 573.91 96.3406 581.061 101.23L562.77 130.287L517.204 99.7608C517.438 97.1308 517.672 94.4884 517.899 91.9304C523.154 89.8014 528.1 87.8013 532.798 86.3705C537.371 84.978 541.659 84.1079 545.826 84.1075ZM367.677 84.4207L380.518 85.4993L379.274 98.7004L366.59 97.5425L367.677 84.4207ZM628.005 85.6068C631.449 86.8895 634.975 88.2086 638.548 89.5501C638.543 89.7771 638.541 89.9097 638.533 90.184C638.496 91.6113 638.435 93.6572 638.333 96.0919C638.13 100.961 637.764 107.386 637.11 113.492C636.985 114.656 636.071 117.401 635.181 119.67C634.705 120.883 634.269 121.922 633.94 122.689C630.393 121.143 628.086 119.619 625.841 118.063C625.328 117.708 624.812 117.348 624.293 116.988C624.444 116.653 624.6 116.307 624.761 115.929C625.539 114.11 626.382 111.948 626.578 110.114C627.242 103.914 627.609 97.0412 627.814 91.7312C627.909 89.2546 627.967 87.1727 628.005 85.6068H628.005ZM684.403 85.6812L694.797 90.2485L696.879 108.014C689.436 104.912 682.46 102.043 676.288 99.5575C679.017 95.3461 681.781 90.7583 684.403 85.6812ZM383.048 85.7118L394.991 86.7143L393.702 100.018L381.802 98.931L383.048 85.7118ZM397.521 86.9267L417.328 88.5897L415.963 102.05L396.23 100.248L397.521 86.9267ZM756.888 89.0947C761.353 90.6727 765.836 92.2579 769.878 93.6984L768.495 99.2972L755.245 94.7059L756.888 89.0947ZM641.064 90.4964C650.389 94.0047 659.571 97.5067 667.307 100.544C663.418 102.637 658.657 106.007 650.935 114.413C647.113 118.575 644.377 122.51 642.108 125.837L636.223 123.805C636.564 123.016 637.017 121.943 637.545 120.597C638.46 118.264 639.433 115.644 639.634 113.762C640.298 107.568 640.665 101.102 640.87 96.1986C640.968 93.8638 641.027 91.921 641.064 90.4964ZM513.493 93.7017C512.254 107.667 510.896 122.725 509.94 135.195C507.667 135.494 505.95 136.002 504.898 136.154C502.643 136.48 499.687 136.878 496.451 137.302L500.434 98.4988C500.983 98.315 501.521 98.1399 502.073 97.9549C506.049 96.6207 509.841 95.1584 513.493 93.7017ZM772.281 94.5571C777.549 96.4399 782.419 98.1947 786.199 99.6005L783.422 133.122C777.654 134.43 771.793 135.74 765.746 137.059C765.614 137.088 765.485 137.13 765.361 137.184C764.252 136.704 763.26 136.276 762.098 135.775L772.281 94.5571ZM754.53 97.1458L767.883 101.773L759.734 134.756C755.172 132.788 750.447 130.751 745.332 128.555L754.53 97.1458ZM497.791 99.3765L493.864 137.637C490.199 138.11 486.226 138.611 481.88 139.146L485.842 103.298C489.787 102.022 493.77 100.714 497.791 99.3765ZM366.381 100.073L379.036 101.229L376.381 129.393C372.217 130.377 368 131.358 363.708 132.34L366.381 100.073ZM381.564 101.459L393.457 102.545L391.202 125.816C387.183 126.805 383.113 127.79 378.991 128.771L381.564 101.459ZM516.948 102.645L561.417 132.437L550.013 150.555C545.269 149.433 540.328 147.22 534.965 143.415C526.658 137.52 520.218 135.452 515.224 135.048C514.876 135.02 514.535 135.002 514.201 134.989C514.956 125.195 515.951 113.859 516.948 102.645ZM395.985 102.776L415.707 104.577L414.145 119.978C407.469 121.74 400.704 123.467 393.815 125.175L395.985 102.776ZM583.856 103.143C587.187 105.427 590.39 107.612 593.424 109.559C593.456 109.598 593.491 109.636 593.526 109.672L581.766 143.014L565.584 132.173L583.856 103.143ZM671.514 103.16C666.284 112.663 657.85 120.197 650.63 128.781L646.421 127.328C648.495 124.215 650.823 120.79 654.052 117.274C663.192 107.323 667.252 105.166 671.514 103.16ZM675.882 103.959C682.371 106.58 689.649 109.576 697.443 112.831L700.75 141.044C699.521 140.965 698.346 140.991 697.252 141.127C695.832 141.304 694.534 141.658 693.402 142.305C692.99 142.54 692.598 142.826 692.243 143.157L673.818 136.792L675.241 105.17C675.459 104.77 675.673 104.367 675.882 103.959ZM483.193 104.16L479.29 139.464C473.957 140.115 468.337 140.784 462.695 141.445L465.954 109.577C471.654 107.824 477.389 106.026 483.193 104.16ZM418.235 104.808L434.984 106.337L434.132 114.536C428.381 116.151 422.599 117.727 416.768 119.278L418.235 104.808ZM672.496 109.677L671.316 135.928L654.949 130.273C660.674 123.722 667.328 117.383 672.496 109.677ZM463.318 110.392L460.112 141.749C450.556 142.862 441.309 143.901 433.55 144.732L436.292 118.321C445.309 115.781 454.276 113.153 463.318 110.392ZM595.744 111.018C595.96 111.151 596.181 111.291 596.395 111.421C596.443 111.46 596.481 111.487 596.529 111.527C597.744 112.529 599.285 113.944 600.938 115.428C602.413 116.753 603.942 118.13 605.489 119.357L597.047 143.409C593.211 144.028 589.541 144.899 585.988 145.842L583.944 144.473L595.744 111.018ZM602.758 112.512C607.967 113.994 612.573 114.5 615.509 115.803C619.069 117.382 621.293 119.031 623.912 120.846C624.449 121.218 625.007 121.596 625.586 121.977C625.443 121.959 625.298 121.94 625.155 121.923C621.082 121.44 617.2 121.127 612.297 119.555C610.267 118.904 606.466 115.842 603.199 112.909C603.047 112.772 602.908 112.647 602.758 112.512ZM701.925 114.71C707.231 116.935 712.648 119.22 718.114 121.538L709.81 143.304C708.91 142.915 707.966 142.559 706.976 142.249C706.342 142.05 705.714 141.883 705.091 141.731L701.925 114.71ZM433.662 119.06L430.968 145.009C430.572 145.051 430.093 145.104 429.708 145.145C425.47 145.589 419.65 146.119 413.996 146.619L416.312 123.78C422.143 122.237 427.916 120.666 433.662 119.06ZM607.626 120.931C608.843 121.741 610.061 122.394 611.264 122.779C613.874 123.616 616.227 124.121 618.423 124.476L612.543 141.229C608.343 141.85 604.06 142.355 599.893 142.967L607.626 120.931ZM720.452 122.531C726.578 125.133 732.558 127.691 738.464 130.221C737.261 133.859 736.103 136.856 735.538 139.343C735.407 139.92 735.307 140.473 735.251 141.008L714.013 145.579L714.027 145.641C713.427 145.216 712.782 144.812 712.097 144.43L720.452 122.531ZM413.69 124.468L411.421 146.847C403.334 147.554 396.289 148.137 396.289 148.137C396.284 148.137 396.279 148.137 396.274 148.137C394.583 148.288 393.059 148.44 391.546 148.588L393.383 129.638C400.265 127.938 407.024 126.218 413.69 124.468ZM620.986 124.84C622.279 125.003 623.532 125.139 624.756 125.284C626.449 125.485 628.104 125.715 629.81 126.067L639.61 129.453C638.085 131.587 636.717 133.247 635.247 134.214C633.204 135.558 630.941 136.642 628.522 137.542L617.595 134.5L620.986 124.84ZM390.769 130.279L388.971 148.836C384.38 149.285 380.54 149.629 377.03 149.573L378.571 133.221C382.691 132.245 386.753 131.264 390.769 130.279ZM644.276 131.064L647.808 132.284C647.496 132.692 647.187 133.102 646.883 133.517C644.781 136.386 643.097 140.346 641.743 144.444C641.736 144.068 641.725 143.6 641.718 143.231C641.683 141.322 642.384 137.83 643.136 134.99C643.593 133.269 643.985 131.983 644.276 131.064ZM740.8 131.221C742.085 131.771 743.463 132.358 744.723 132.899C743.237 137.854 742.223 141.207 741.358 142.847C740.868 143.775 740.49 144.076 740.261 144.155C740.032 144.235 739.631 144.228 738.787 143.817C738.141 143.503 737.955 143.236 737.82 142.661C737.686 142.087 737.734 141.143 738.015 139.906C738.496 137.784 739.607 134.82 740.8 131.221ZM652.042 133.747L656.842 135.405L656.983 153.893L642.66 158.134C643.045 155.919 643.645 153.039 644.449 150.118C645.916 144.786 648.093 139.025 650.297 136.018C650.857 135.252 651.444 134.498 652.042 133.747ZM375.962 133.844L374.49 149.455C371.97 149.263 369.53 148.833 366.933 148.021C366.776 147.89 366.601 147.782 366.413 147.7C366.413 147.7 362.551 146.021 360.806 145.261L363.029 136.833C367.401 135.837 371.723 134.841 375.962 133.844ZM747.075 133.912C751.317 135.735 755.363 137.478 759.179 139.125L757.4 147.855L744.165 142.829C745.036 140.789 745.902 137.852 747.075 133.912ZM564.231 134.322L568.391 137.109L566.381 150.787C566.217 150.814 566.052 150.846 565.888 150.872C561.797 151.512 557.754 151.74 553.603 151.206L564.231 134.322ZM659.388 136.285L670.763 140.214L668.964 145.953C668.004 148.713 667.74 150.093 667.451 150.5C667.306 150.704 667.163 150.835 666.602 151.063C666.041 151.291 665.113 151.55 663.736 151.895C663.719 151.899 663.702 151.904 663.684 151.909L659.516 153.143L659.388 136.285ZM616.752 136.901L624.103 138.948C621.317 139.704 618.387 140.287 615.39 140.782L616.752 136.901ZM638.223 137.293C637.778 139.357 637.453 141.466 637.487 143.31C637.489 143.418 637.493 143.557 637.495 143.665C634.471 143.207 630.637 142.948 626.181 142.83C630.237 141.637 634.1 140.031 637.572 137.747C637.794 137.602 638.01 137.449 638.223 137.293ZM359.306 137.674L357.665 143.894C354.826 142.66 353.083 141.904 348.754 140.029C352.319 139.242 355.838 138.457 359.306 137.674ZM782.482 137.674L780.84 143.894C778.002 142.66 776.259 141.904 771.93 140.029C775.495 139.242 779.014 138.457 782.482 137.674ZM570.726 138.673L580.894 145.485L580.206 147.434C576.388 148.508 572.677 149.544 569.019 150.296L570.726 138.673ZM513.882 139.21C514.207 139.221 514.538 139.235 514.884 139.263C519.025 139.598 524.666 141.293 532.517 146.864C537.829 150.633 542.924 152.978 547.845 154.297C545.788 156.988 543.82 159.517 541.903 161.922C541.704 161.706 541.487 161.469 541.328 161.299C541.068 161.02 540.931 160.839 540.587 160.596C536.467 157.69 531.073 154.569 525.727 152.193C521.332 150.24 517.007 148.769 513.318 148.412C513.475 145.358 513.661 142.287 513.882 139.21ZM509.618 139.535C509.408 142.53 509.228 145.518 509.077 148.487C505.968 148.788 502.707 149.448 499.532 150.315C499.623 150.048 499.623 149.758 499.53 149.491L496.761 141.527C500.105 141.089 503.169 140.677 505.504 140.339C506.814 140.15 508.122 139.799 509.618 139.535H509.618ZM761.561 140.151C770.394 143.967 775.093 146.009 779.748 148.034L777.756 155.585L759.805 148.768L761.561 140.151ZM673.164 141.043L690.654 147.085C690.706 147.839 690.914 148.573 691.228 149.234C691.659 150.142 692.273 150.962 693.018 151.729C691.488 153.225 687.776 156.789 685.719 158.179C681.456 161.06 674.028 165.105 670.336 167.076L669.391 152.137C669.435 152.083 669.48 152.028 669.52 151.971C670.436 150.682 670.462 149.368 671.374 146.751C671.379 146.738 671.383 146.725 671.387 146.712L673.164 141.043ZM494.188 141.86L497.132 150.325C497.21 150.548 497.348 150.745 497.532 150.893C494.308 151.87 491.233 153.024 488.579 154.188C485.423 155.572 482.887 156.942 481.315 158.152C481.208 158.234 481.114 158.309 481.014 158.387C481.121 153.322 481.3 148.329 481.552 143.45C486.141 142.887 490.32 142.359 494.188 141.86ZM735.444 143.564C735.689 144.317 736.154 145.002 736.79 145.527L732.884 157.197L718.662 152.284C718.622 151.501 718.41 150.736 718.084 150.049C717.673 149.185 717.097 148.398 716.399 147.662L735.444 143.564ZM478.992 143.761C478.599 151.518 478.391 159.555 478.354 167.69L459.981 171.179C460.876 162.634 461.771 154.126 462.66 145.708C468.204 145.06 473.719 144.403 478.992 143.761ZM742.951 145.084L756.886 150.376L754.009 164.494L735.285 158.026L739.102 146.619C739.77 146.772 740.439 146.781 741.093 146.554C741.857 146.289 742.45 145.765 742.951 145.084ZM699.451 145.237C701.264 145.251 703.454 145.579 705.709 146.286C708.715 147.229 711.243 148.661 712.769 150.031C713.531 150.716 714.032 151.384 714.262 151.867C714.492 152.35 714.468 152.563 714.423 152.707C714.378 152.851 714.275 153.04 713.81 153.305C713.346 153.57 712.554 153.831 711.536 153.958C709.501 154.211 706.609 153.941 703.603 152.998C700.597 152.055 698.069 150.625 696.543 149.254C695.781 148.569 695.279 147.902 695.05 147.419C694.82 146.935 694.843 146.722 694.888 146.578C694.933 146.434 695.037 146.245 695.501 145.98C695.966 145.714 696.757 145.453 697.775 145.327C698.284 145.263 698.847 145.233 699.451 145.237ZM459.215 146.113C458.316 154.62 457.411 163.214 456.508 171.847C451.74 172.799 447.296 174.274 443.056 173.19L446.082 147.61C450.334 147.133 454.71 146.636 459.215 146.113ZM618.508 147.043C626.777 147.058 633.543 147.33 637.583 147.982C637.656 151.671 637.73 155.354 637.817 159.307L610.667 154.241L613.184 147.069C615.008 147.051 616.8 147.04 618.508 147.043V147.043ZM610.481 147.105L608.141 153.77L598.107 151.898C597.645 151.812 597.25 151.728 596.848 151.644L598.306 147.49C598.706 147.427 599.112 147.367 599.517 147.306L599.518 147.338C603.299 147.231 606.954 147.156 610.481 147.105V147.105ZM443.923 147.851L440.97 172.812L426.401 170.291L429.419 149.424C429.647 149.401 429.93 149.374 430.149 149.351C434.196 148.927 438.95 148.405 443.923 147.851ZM595.439 147.99L594.377 151.016C592.948 150.558 591.841 149.981 590.501 149.073C592.13 148.675 593.775 148.309 595.439 147.99ZM427.249 149.641L424.315 169.93C422.162 169.494 419.986 170.535 417.89 171.044L409.947 168.686L412.905 150.963C417.857 150.527 422.95 150.067 427.249 149.641ZM359.642 149.671C365.547 152.444 370.597 153.572 375.87 153.775C379.78 153.926 383.796 153.601 388.465 153.145L387.688 162.076L358.644 153.451L359.642 149.671ZM587.298 149.893C589.643 151.611 591.324 152.633 593.547 153.382L585.292 176.904C581.322 176.051 577.481 175.224 573.408 174.341L581.464 151.504C583.399 150.96 585.341 150.415 587.298 149.893ZM513.193 150.963C516.363 151.32 520.507 152.652 524.695 154.513C529.865 156.811 535.158 159.875 539.124 162.671C539.005 162.587 539.233 162.776 539.471 163.031C539.679 163.254 539.973 163.577 540.296 163.925C533.076 172.855 526.443 180.124 518.292 187.696C517.683 184.47 516.526 181.084 515.409 177.642C514.33 174.314 513.286 170.947 512.716 167.771C512.777 162.339 512.93 156.7 513.193 150.963ZM508.953 151.054C508.664 157.448 508.505 163.728 508.462 169.725C508.462 169.757 508.463 169.788 508.465 169.82C507.406 176.052 504.919 182.135 504.291 188.199L483.34 167.719C484.073 166.937 484.549 165.962 484.728 164.993C484.919 163.962 484.831 162.902 484.376 161.964C484.043 161.277 483.46 160.668 482.716 160.306C482.776 160.253 482.793 160.218 482.863 160.164C484.104 159.209 486.557 157.847 489.599 156.513C495.057 154.12 502.497 151.75 508.953 151.054H508.953ZM410.292 151.195L407.495 167.957L390.172 162.813L391.035 152.892C392.803 152.715 394.659 152.53 396.651 152.352H396.635C396.635 152.352 402.828 151.843 410.292 151.195ZM759.292 151.289L777.105 158.054L773.618 171.268L756.43 165.331L759.292 151.289ZM578.477 152.336L570.906 173.8C569.168 173.423 567.465 173.052 565.732 172.674L568.367 154.737C571.768 154.113 575.121 153.258 578.477 152.336ZM694.953 153.399C696.944 154.877 699.461 156.134 702.336 157.036C704.269 157.642 706.16 158.02 707.948 158.185L709.388 167.427L671.11 179.288L670.513 169.861C673.283 168.404 681.995 163.76 687.141 160.283C689.765 158.51 693.596 154.755 694.953 153.399ZM666.943 153.641L667.876 168.381L659.666 172.749L659.537 155.785L664.388 154.349C665.436 154.086 666.256 153.872 666.943 153.641ZM596.002 154.056C596.514 154.172 597.054 154.285 597.642 154.394L607.606 156.253L603.322 180.762C598.49 179.733 593.2 178.6 587.795 177.44L596.002 154.056ZM550.558 154.925C551.775 155.163 552.982 155.343 554.179 155.468L552.681 169.701C549.713 168.678 547.154 166.888 545.174 165.158C544.628 164.682 544.132 164.214 543.678 163.768C545.888 160.999 548.165 158.064 550.558 154.925ZM565.738 155.161L563.245 172.13C560.536 171.539 557.814 170.946 555.165 170.363L556.713 155.654C559.779 155.787 562.783 155.583 565.738 155.161ZM357.996 155.908L387.309 164.612L382.754 190.071L367.102 187.095C366.905 186.969 366.677 186.901 366.444 186.897C366.357 186.896 366.27 186.904 366.184 186.92L350.596 183.956L357.996 155.908ZM717.001 156.187L731.541 161.21L727.619 172.926L712.04 167.956L710.53 158.267C711.053 158.25 711.567 158.219 712.059 158.157C713.48 157.981 714.777 157.625 715.909 156.979C716.295 156.758 716.664 156.492 717.001 156.187ZM657.003 156.535L657.137 174.094L642.579 181.84C642.463 177.107 642.382 173.716 642.22 166.69C642.197 164.948 642.178 163.292 642.171 161.855C642.17 161.664 642.201 161.316 642.247 160.905L657.003 156.535ZM610.103 156.719L637.876 161.902C637.914 163.558 637.95 165.092 637.987 166.718C638.053 171.73 638.18 177.818 638.329 184.101L632.805 187.04C632.712 186.995 632.613 186.962 632.512 186.941C632.512 186.941 621.34 184.598 605.806 181.293L610.103 156.719ZM733.941 162.039L753.156 168.677L750.784 180.317L730.039 173.698L733.941 162.039ZM480.944 162.404C481.092 162.449 481.242 162.486 481.392 162.512C481.761 162.578 481.925 162.727 482.092 163.071C482.258 163.415 482.336 163.967 482.231 164.532C482.083 165.333 481.677 166.082 480.901 166.487C480.911 165.122 480.925 163.762 480.944 162.404ZM389.758 165.339L407.073 170.481L405.322 180.972L387.728 176.683L389.758 165.339ZM542.08 165.753C542.518 166.178 542.985 166.618 543.503 167.071C544.25 167.722 545.088 168.388 545.995 169.032C543.005 175.877 542.495 178.026 542.448 186.075L542.373 198.839C534.536 198.675 528.507 198.63 524.341 198.623C522.162 198.619 520.478 198.624 519.283 198.628C518.978 198.628 519.009 198.626 518.761 198.624C518.749 195.799 518.738 192.754 518.726 191.706C518.723 191.399 518.709 191.089 518.691 190.778C527.471 182.743 534.485 175.127 542.08 165.753L542.08 165.753ZM755.578 169.514L772.536 175.372L766.271 199.115L750.567 194.105L755.578 169.514ZM481.675 169.643L504.141 191.603C504.129 193.21 504.123 195.818 504.12 199.101C496.319 197.747 488.703 195.24 481.29 192.597C481.019 185.032 480.876 177.38 480.884 169.793L481.675 169.643ZM709.783 169.962L711.637 181.854L671.904 191.823L671.275 181.895L709.783 169.962ZM478.345 170.275C478.344 177.397 478.472 184.571 478.715 191.675C471.802 189.177 465.067 186.659 458.544 184.957C458.93 181.241 459.318 177.528 459.706 173.816L478.345 170.275ZM548.158 170.421C549.876 171.401 551.806 172.224 553.934 172.693C555.223 172.976 556.569 173.269 557.876 173.555L554.619 199.229C551.365 199.092 548.112 198.98 544.911 198.9L544.987 186.09C545.033 178.281 545.359 176.839 548.158 170.421ZM712.478 170.76L726.814 175.334L723.429 185.446L714.313 182.539L712.478 170.76ZM668.052 171.163L669.4 192.451L663.493 193.933L660.039 175.578L659.598 175.661L668.052 171.163ZM409.525 171.209L417.109 173.461C419.131 175.352 420.1 178.947 422.92 179.574L420.367 197.223L405.651 194.424L409.525 171.209ZM423.331 172.336L423.951 172.444L423.284 177.055L423.164 177.028L420.08 173.125L423.331 172.336ZM426.037 172.805L440.672 175.337L440.028 180.78L425.356 177.516L426.037 172.805ZM560.367 174.1C563.635 174.815 566.879 175.524 570.184 176.242L564.971 199.729C562.412 199.59 559.802 199.456 557.165 199.337L560.367 174.1ZM456.232 174.501C455.895 177.72 455.559 180.938 455.224 184.16L442.104 181.242L442.756 175.726C447.495 176.826 452.005 175.422 456.232 174.501ZM510.958 174.78C511.353 176.097 511.773 177.402 512.189 178.686C513.787 183.614 515.302 188.26 515.341 191.745C515.352 192.778 515.364 195.809 515.375 198.665C515.159 198.681 514.971 198.691 514.731 198.711C513.685 198.797 512.458 198.92 511.24 199.038C510.02 199.157 508.808 199.271 507.81 199.338C507.696 199.345 507.617 199.343 507.507 199.349C507.51 195.573 507.515 192.086 507.531 190.68C507.583 186.001 509.557 180.671 510.958 174.78L510.958 174.78ZM729.233 176.106L750.274 182.82L748.133 193.328L725.848 186.218L729.233 176.106ZM657.665 176.69L661.026 194.552L642.945 199.088C642.891 197.116 642.84 195.162 642.786 193.107C642.831 192.916 642.85 192.721 642.841 192.526C642.841 192.526 642.713 187.258 642.649 184.679L657.665 176.69ZM572.666 176.779C576.798 177.674 580.7 178.514 584.727 179.38L579.884 200.65C579.348 200.614 578.906 200.581 578.352 200.544C575.012 200.322 571.351 200.093 567.54 199.874L572.666 176.779ZM387.28 179.187L404.903 183.483L403.156 193.95L385.247 190.545L387.28 179.187ZM587.21 179.911C592.706 181.091 598.092 182.245 602.994 183.288L603.355 196.832L596.053 201.7C596.018 201.723 595.984 201.749 595.951 201.776C595.737 201.765 595.484 201.757 594.792 201.71C593.857 201.646 592.561 201.552 590.97 201.435C588.716 201.271 585.718 201.056 582.448 200.828L587.21 179.911ZM424.992 180.035L439.728 183.313L437.376 203.191L424.713 198.074C424.636 198.043 424.556 198.019 424.474 198.004L422.449 197.619L424.992 180.035ZM441.804 183.775L454.96 186.702C454.173 194.281 453.397 201.832 452.631 209.354L439.41 204.012L441.804 183.775ZM605.549 183.836C618.28 186.544 626.454 188.262 629.443 188.89L614.325 197.357C614.204 197.308 614.077 197.277 613.947 197.266L605.889 196.622L605.549 183.836ZM712.031 184.374L716.854 215.317C714.353 215.091 711.888 214.89 709.473 214.717L708.297 185.31L712.031 184.374ZM714.751 185.342L765.906 201.664L765.15 221.979C764.597 221.782 763.956 221.546 763.536 221.405C762.787 221.152 762.434 220.999 761.761 220.898C753.237 219.616 736.014 217.143 719.461 215.557L714.751 185.342ZM705.781 185.942L706.925 214.545C702.741 214.28 698.77 214.113 695.214 214.096L694.28 188.827L705.781 185.942ZM349.947 186.417L364.866 189.254L362.363 199.947L347.205 196.807L349.947 186.417ZM638.396 186.942C638.508 191.518 638.622 195.845 638.741 200.143L631.683 201.914C625.801 203.39 621.171 203.091 615.116 202.821V199.825L632.847 189.894L638.396 186.942ZM458.277 187.518C464.8 189.259 471.659 191.873 478.812 194.447C479.097 201.836 479.511 209.117 480.034 216.164C478.31 216.829 476.56 217.542 474.779 218.305C474.759 218.296 474.738 218.287 474.717 218.279L455.899 210.675C456.681 202.99 457.474 195.267 458.277 187.518ZM691.763 189.458L692.158 200.151L672.702 204.415L672.067 194.4L691.763 189.458ZM367.362 189.729L382.306 192.57L380.321 203.667L364.85 200.462L367.362 189.729ZM384.8 193.045L402.738 196.456L400.825 207.914L382.807 204.182L384.8 193.045ZM669.563 195.028L670.192 204.965L643.284 210.863C643.202 208.108 643.115 205.094 643.02 201.687L669.563 195.028ZM481.393 195.365C488.685 197.94 496.272 200.357 504.118 201.673C504.118 204.073 504.121 206.9 504.123 209.602C496.889 210.734 489.892 212.548 482.511 215.236C482.04 208.775 481.664 202.117 481.393 195.365ZM405.232 196.93L420.004 199.739L412.734 250.013C412.723 250.019 412.714 250.024 412.703 250.03C412.493 249.818 412.241 249.654 411.963 249.547C408.958 248.339 403.39 246.105 397.423 243.717L405.232 196.93ZM604.584 199.065L612.577 199.704V203.351L604.579 207.776L598.027 206.839V203.436L604.584 199.065ZM346.556 199.265L361.783 202.42L359.112 213.83L352.046 212.107C351.923 212.076 351.796 212.063 351.669 212.069C350.193 212.137 350.005 214.245 351.445 214.575L358.533 216.302L355.959 227.296C353.814 226.462 351.552 225.577 349.715 224.873C348.087 224.248 346.638 223.699 345.317 223.203L346.151 200.805L346.556 199.265ZM422.085 200.134L423.878 200.475L437.067 205.804L433.112 239.239C426.915 242.494 420.795 245.725 415.051 248.779L422.085 200.134ZM524.336 201.162C528.498 201.169 534.52 201.213 542.358 201.378L542.311 209.236C538.526 208.582 534.523 208.155 530.237 208.081C526.236 208.012 522.444 208.046 518.793 208.198C518.786 205.799 518.78 203.257 518.773 201.168C518.955 201.167 519.069 201.167 519.286 201.167C520.486 201.167 522.165 201.159 524.336 201.162V201.162ZM515.388 201.212C515.395 203.322 515.401 205.957 515.408 208.377C512.714 208.551 510.09 208.797 507.509 209.123C507.507 206.664 507.503 204.096 507.504 201.895C507.668 201.885 507.802 201.882 507.98 201.87C509.032 201.8 510.261 201.684 511.486 201.565C512.71 201.446 513.929 201.323 514.939 201.24C515.108 201.226 515.23 201.223 515.388 201.212H515.388ZM544.896 201.439C551.453 201.604 558.269 201.907 564.735 202.259C564.734 204.162 564.709 208.838 564.536 215.718C558.531 213.484 552.102 211.196 544.847 209.711L544.896 201.439ZM567.273 202.402C571.118 202.622 574.814 202.853 578.183 203.078C578.591 203.105 578.915 203.129 579.314 203.156L575.709 218.986L574.875 219.454C572.321 218.612 569.72 217.65 567.052 216.654C567.246 209.371 567.272 204.383 567.273 202.402ZM692.254 202.73L692.674 214.112C686.185 214.221 679.777 214.915 673.424 215.827L672.864 206.979L692.254 202.73ZM638.816 202.742C638.907 205.959 638.991 208.936 639.068 211.527L605.986 213.107L605.902 209.946L614.254 205.325C620.665 205.599 625.768 206.016 632.301 204.377L638.816 202.742ZM364.27 202.935L379.874 206.167L377.692 218.36L361.578 214.432L364.27 202.935ZM581.878 203.333C585.306 203.571 588.441 203.797 590.785 203.968C592.377 204.084 593.673 204.179 594.62 204.243C594.992 204.268 595.241 204.287 595.488 204.303V207.908L578.694 217.314L581.878 203.333ZM439.101 206.626L452.362 211.984C451.741 218.103 451.138 224.14 450.54 230.16C445.687 232.659 440.564 235.333 435.384 238.048L439.101 206.626ZM382.36 206.682L400.407 210.42L398.246 223.37L380.163 218.962L382.36 206.682ZM670.354 207.529L670.903 216.2C661.713 217.599 652.628 219.345 643.568 220.349C643.54 219.465 643.478 217.439 643.358 213.445L670.354 207.529ZM598.015 209.402L603.368 210.168L603.71 223C598.014 223.062 592.349 222.87 586.732 222.247C583.889 221.932 581.07 221.305 578.224 220.489L598.015 209.402ZM525.699 212.278C527.157 212.275 528.644 212.286 530.164 212.312C533.996 212.378 537.595 212.755 541.02 213.34L531.589 233.46C531.129 233.342 530.65 233.273 530.154 233.273C527.664 233.273 525.528 234.855 524.686 237.061L518.858 237.206C518.857 236.818 518.835 224.518 518.805 212.421C521.037 212.33 523.327 212.283 525.699 212.278V212.278ZM515.419 212.597C515.45 224.608 515.472 237.007 515.473 237.29L507.55 237.487C507.548 236.411 507.524 225.22 507.511 213.351C510.089 213.018 512.714 212.77 515.419 212.597ZM455.63 213.305L471.538 219.733C469.27 220.758 466.948 221.86 464.551 223.05C461.396 224.617 457.868 226.402 454.127 228.316C454.624 223.329 455.117 218.36 455.63 213.305ZM543.598 213.827C551.188 215.389 557.91 217.917 564.402 220.332C564.354 221.799 564.302 223.292 564.24 224.856L555.523 226.763C555.435 226.782 555.35 226.811 555.268 226.848L535.12 236.051C534.778 235.503 534.354 235.012 533.857 234.603L543.598 213.827ZM504.126 213.846C504.139 225.663 504.163 236.501 504.165 237.548C502.441 237.522 500.881 237.624 499.455 237.857L499.449 237.848C497.676 235.179 495.28 232.509 491.098 231.741L484.253 220.225L484.023 219.796C483.975 219.704 483.916 219.618 483.847 219.541L483.693 219.282C490.707 216.695 497.303 214.947 504.126 213.846L504.126 213.846ZM639.142 214.065C639.259 217.956 639.319 219.878 639.344 220.651C639.273 220.69 639.204 220.733 639.139 220.78C638.888 220.8 638.637 220.822 638.386 220.841C627.638 221.643 616.893 222.708 606.249 222.959L606.054 215.646L639.142 214.065ZM361 216.904L377.244 220.863L374.77 234.692C373.641 234.245 372.512 233.794 371.393 233.351C366.803 231.535 362.445 229.823 358.349 228.224L361 216.904ZM695.339 218.328C698.612 218.349 702.278 218.501 706.162 218.743L703.948 234.03L691.217 234.459L694.801 218.329C694.982 218.329 695.155 218.326 695.339 218.328V218.328ZM692.195 218.352L688.597 234.546L671.935 235.108L673.251 220.152C679.584 219.217 685.889 218.493 692.195 218.352ZM708.703 218.918C711.415 219.11 714.204 219.339 717.043 219.601L715.966 255.017L703.563 254.399L708.703 218.918ZM719.577 219.835C722.723 220.141 725.894 220.479 729.029 220.833L727.303 279.412C724.109 279.942 720.913 280.463 717.718 280.984L719.577 219.835ZM481.282 220.195L482.047 221.482L488.658 233.826C487.074 237.589 487.868 240.935 489.047 243.807C489.047 243.819 489.047 243.83 489.047 243.842L489.05 243.996C487.923 245.318 486.829 246.822 485.68 248.524L476.839 261.621C476.625 261.233 476.34 260.696 476.053 260.094C475.478 258.885 474.957 257.354 474.948 256.694C474.77 242.801 474.189 225.309 474.118 223.207C476.573 222.108 478.955 221.103 481.282 220.195H481.282ZM670.668 220.545L669.434 234.56L660.115 231.525L658.503 222.522C662.576 221.861 666.629 221.173 670.668 220.545ZM731.561 221.125C743.627 222.532 754.819 224.133 761.132 225.083C760.884 225.046 761.496 225.182 762.183 225.414C762.871 225.646 763.813 225.982 764.958 226.403C764.966 226.406 764.977 226.41 764.984 226.413L763.835 257.286C763.612 263.271 762.629 268.301 760.843 273.588L760.826 273.592C760.692 273.616 760.561 273.653 760.435 273.702C760.348 273.707 760.262 273.717 760.177 273.733C750.081 275.56 739.973 277.3 729.856 278.988L731.561 221.125ZM566.911 221.259C569.759 222.306 572.575 223.297 575.409 224.145L579.333 250.195L565.341 250.62C565.777 243.627 566.248 236.459 566.568 229.791C566.712 226.794 566.819 223.968 566.911 221.259ZM379.715 221.466L397.827 225.881L395.011 242.75C389.504 240.548 383.345 238.095 377.177 235.647L379.715 221.466ZM655.995 222.925L657.619 231.99L652.427 236.283L642.94 224.677C647.321 224.225 651.671 223.607 655.995 222.925ZM471.614 224.351C471.755 228.638 472.246 244.067 472.409 256.727C472.429 258.285 473.125 259.851 473.76 261.185C474.395 262.519 475.027 263.563 475.027 263.563C475.101 263.687 475.196 263.798 475.307 263.891L474.556 265.003L459.891 262.695L462.757 228.685C464.01 228.054 465.274 227.417 466.433 226.841C468.204 225.961 469.926 225.136 471.614 224.351ZM578.09 224.9C580.769 225.6 583.48 226.144 586.266 226.453C587.584 226.599 588.903 226.716 590.222 226.819L591.538 249.824L581.889 250.117L578.09 224.9ZM636.431 225.24C634.367 229.134 633.099 232.167 632.324 235.128C629.608 236.036 627.512 238.498 625.532 241.174C623.333 244.146 621.268 247.521 619.172 249.844C619.135 249.886 619.101 249.93 619.069 249.977L606.793 249.46L605.52 227.214C615.89 227.014 626.22 226.034 636.431 225.24ZM640.787 226.056L650.47 237.9L645.388 242.102L636.355 236.018C637.124 233.194 638.455 230.269 640.787 226.056ZM592.775 226.999C596.177 227.199 599.579 227.27 602.978 227.249L604.246 249.438L594.077 249.747L592.775 226.999ZM564.127 227.48C564.094 228.215 564.068 228.919 564.032 229.669C563.701 236.555 563.205 243.999 562.756 251.246L551.959 257.559C546.556 252.303 541.008 247.078 535.279 241.946C535.743 241.109 536.008 240.148 536.008 239.128C536.008 238.9 535.992 238.676 535.966 238.455L556.199 229.215L564.127 227.48ZM768.326 227.664C770.025 228.306 771.883 229.016 773.994 229.832C781.268 232.643 790.661 236.347 799.948 240.035C814.258 245.719 825.74 250.332 831.44 252.624L810.096 263.839L764.622 272.84C766.136 267.907 767.009 263.029 767.218 257.413L768.326 227.664ZM345.151 227.665C346.118 228.031 347.091 228.398 348.2 228.824C354.073 231.076 361.784 234.101 369.837 237.286C371.267 237.852 372.709 238.426 374.152 238.999C372.826 248.334 370.681 257.004 374.024 266.392L341.446 272.841C342.96 267.907 343.833 263.029 344.042 257.413L345.151 227.665ZM460.096 230.028L457.376 262.3L450.923 261.285C451.777 252.202 452.685 242.843 453.626 233.333C455.861 232.184 458.027 231.077 460.096 230.028ZM659.27 233.92L669.205 237.157L668.115 249.532C666.626 249.03 664.966 249.133 663.536 249.872L654.034 238.248L659.27 233.92ZM491.189 234.326C493.88 234.949 495.402 236.495 496.809 238.49C495.571 238.891 494.441 239.42 493.391 240.087C492.553 240.62 491.773 241.233 491.026 241.919C490.125 239.505 489.778 237.228 491.189 234.326ZM450.039 235.18C449.183 243.858 448.359 252.388 447.576 260.706C442.127 259.655 437.769 259.406 432.935 258.748L434.781 243.145C439.951 240.429 445.121 237.722 450.039 235.18ZM873.185 235.47C870.184 265.917 867.562 294.597 865.828 318.298C864.842 331.767 865.379 346.826 855.345 361.888C854.499 363.157 852.313 365.433 849.254 368.159C848.736 368.621 848.157 369.118 847.589 369.609C847.76 361.714 848.189 355.911 848.793 347.852C849.19 342.551 849.944 338.526 849.293 334.607C848.655 330.76 846.363 327.33 841.705 324.082C823.38 307.293 807.807 289.546 792.502 271.635L811.22 267.93C811.419 267.891 811.612 267.822 811.793 267.728L836.596 254.695C836.597 254.695 836.672 254.726 836.672 254.726C837.925 255.247 839.338 254.47 839.57 253.133L873.185 235.47ZM530.154 235.812C532 235.812 533.469 237.282 533.469 239.128C533.469 240.974 532 242.443 530.154 242.443C528.308 242.443 526.838 240.974 526.838 239.128C526.838 237.282 528.308 235.812 530.154 235.812ZM703.579 236.583L701.016 254.273L686.971 253.574L690.649 237.019L703.579 236.583ZM688.029 237.106L684.398 253.446L671.689 252.815L671.682 252.968C671.446 252.345 671.105 251.752 670.645 251.222C670.6 251.17 670.55 251.124 670.503 251.073L670.528 251.076L671.71 237.656L688.029 237.106ZM631.66 238.342C631.135 241.686 631.039 245.422 630.933 250.477L622.224 250.11C624.102 247.76 625.833 245.036 627.573 242.684C628.946 240.829 630.328 239.29 631.66 238.342ZM635.781 238.693L644.209 244.37L644.346 251.167L635.151 250.964C635.257 245.488 635.271 241.867 635.781 238.693ZM524.324 239.61C524.531 242.11 526.327 244.173 528.693 244.789L529.029 271.946L514.153 270.925C514.14 270.086 514.127 269.253 514.114 268.414C514.88 256.127 517.422 244.054 518.399 239.758L524.324 239.61ZM514.904 239.844C514.156 243.183 512.816 249.641 511.795 257.366C510.508 249.498 508.811 242.917 508.012 240.015L514.904 239.844ZM652.077 239.867L661.626 251.547L646.887 251.223L646.747 244.273L652.077 239.867ZM376.583 239.964C382.821 242.441 388.813 244.829 394.298 247.023L391.942 261.135C389.972 262.195 386.986 263.801 386.913 263.841L376.541 265.894C373.363 257.326 375.248 249.28 376.583 239.964ZM503.043 240.085C503.514 240.077 504.011 240.083 504.522 240.096C505.555 243.816 509.191 257.653 509.88 270.559L492.054 267.755L491.607 244.944C492.624 243.839 493.647 242.932 494.752 242.23C496.9 240.865 499.412 240.149 503.043 240.085ZM533.595 243.848C535.625 245.667 537.636 247.496 539.623 249.337L539.911 272.693L531.571 272.121L531.234 244.878C532.104 244.714 532.905 244.354 533.595 243.848ZM432.509 244.336L430.841 258.439C426.336 257.717 421.248 256.512 414.405 253.919C420.122 250.876 426.201 247.656 432.509 244.336ZM396.71 247.99C401.257 249.811 405.208 251.394 408.021 252.525C402.644 255.393 398.358 257.686 394.77 259.613L396.71 247.99ZM489.129 248.025L489.507 267.355L477.326 265.438L487.785 249.944C488.246 249.261 488.69 248.63 489.129 248.025ZM542.192 251.735C544.753 254.137 547.28 256.553 549.777 258.977L549.95 273.381L542.453 272.867L542.192 251.735ZM666.318 251.737C667.21 251.762 668.088 252.15 668.727 252.886C669.68 253.985 669.788 255.504 669.11 256.691L665.197 251.904C665.562 251.784 665.941 251.727 666.318 251.737ZM604.392 251.974L605.766 275.998C605.767 276.007 605.768 276.015 605.77 276.024L606.431 284.496C601.317 285.073 599.014 285.133 597.122 285.589C595.232 286.044 593.912 286.939 591.077 288.875C590.087 288.018 588.877 287.35 587.424 286.862L586.214 278.834L594.597 276.609C595.18 276.455 595.574 275.911 595.539 275.309L594.222 252.283L604.392 251.974ZM606.938 252.008L618.868 252.51L619.003 263.227L607.555 262.773L606.938 252.008ZM591.683 252.359L592.945 274.421L585.834 276.309L582.27 252.645L591.683 252.359ZM621.41 252.617L630.887 253.016L630.639 276.628L621.7 275.779L621.41 252.617ZM579.714 252.724L581.778 266.43L575.837 267.197L573.643 252.908L579.714 252.724ZM571.086 252.986L573.409 268.124L567.645 273.234C566.556 272.123 565.458 271.012 564.359 269.898C564.506 264.834 564.821 259.107 565.183 253.166L571.086 252.986ZM635.115 253.503L663.74 254.133L667.606 258.864L667.148 265.151L634.998 264.632L635.068 257.946L635.115 253.503ZM562.569 254.297C562.294 258.87 562.052 263.312 561.9 267.413C559.245 264.74 556.567 262.066 553.844 259.397L562.569 254.297ZM672.055 255.375L684.062 255.972L683.434 274.414L668.969 275.109L670.138 259.061L670.139 259.059L670.303 259.248C671.385 258.194 671.976 256.799 672.055 255.375V255.375ZM686.599 256.098L700.899 256.809L700.405 283.781C698.006 284.164 695.607 284.548 693.208 284.93L685.964 274.725L686.599 256.098ZM409.401 256.585C412.115 262.465 411.806 263.458 412.396 271.292L413.773 289.582C413.368 289.483 412.949 289.419 412.495 289.386V289.382C410.743 289.254 408.463 289.571 404.426 289.974C404.421 289.975 404.415 289.977 404.409 289.978L403.578 290.073L401.734 260.682C404.109 259.41 406.587 258.087 409.401 256.585V256.585ZM412.245 256.714C419.891 259.681 425.527 261.021 430.443 261.805L426.008 299.291L420.182 294.267C418.707 292.995 417.726 292.047 416.848 291.302C416.705 291.181 416.564 291.072 416.423 290.96L414.928 271.102C414.382 263.846 414.508 261.921 412.245 256.714ZM703.436 256.935L715.89 257.554L715.164 281.403C711.094 282.065 707.023 282.72 702.951 283.372L703.436 256.935ZM552.345 261.483C555.544 264.621 558.681 267.769 561.791 270.914C561.763 272.044 561.747 273.132 561.739 274.189L552.491 273.555L552.345 261.483ZM399.272 262.001L401.052 290.36L389.418 291.683L393.889 264.891C395.647 263.945 396.436 263.522 399.272 262.001ZM432.537 262.115C437.526 262.795 441.941 263.045 447.261 264.092C445.586 282.04 444.122 298.89 442.983 313.931L427.943 300.959L432.537 262.115ZM450.607 264.662L457.09 265.682L452.392 321.412C452.389 321.409 452.386 321.406 452.383 321.402C450.511 319.343 448.318 317.88 446.184 316.495C447.338 300.984 448.857 283.42 450.607 264.662L450.607 264.662ZM607.7 265.319L619.034 265.769L619.157 275.537L608.225 274.498L607.7 265.319ZM459.605 266.077L473.933 268.332L474.531 328.372C468.804 329.276 462.893 329.98 456.624 330.443C456.215 328.034 455.475 326.026 454.509 324.33C454.646 324.142 454.729 323.92 454.749 323.689L459.605 266.077ZM391.061 266.413L386.837 291.726C380.874 285.08 375.081 278.369 369.326 271.635L388.043 267.93C388.251 267.889 388.452 267.817 388.638 267.716C388.638 267.716 390.562 266.682 391.061 266.413ZM634.971 267.171L666.963 267.688L666.414 275.232L634.87 276.747L634.971 267.171ZM476.477 268.732L489.574 270.792L490.64 325.243C485.68 326.244 481.733 327.164 477.067 327.957L476.477 268.732ZM582.157 268.941L584.893 287.107C584.815 287.159 584.744 287.219 584.679 287.287C584.116 287.87 583.567 288.469 583.076 289.129C578.594 284.497 574.052 279.796 569.421 275.053L575.319 269.824L582.157 268.941ZM492.121 271.192L509.967 274C510.173 287.366 510.379 300.75 510.585 314.011C510.591 314.429 510.602 316.801 510.632 320.15C509.507 320.452 508.381 320.747 507.256 321.054C502.488 322.356 497.826 323.569 493.169 324.668L492.121 271.192ZM364.564 272.578C364.972 273.056 365.382 273.534 365.79 274.012L342.208 279.168L340.317 277.377L364.564 272.578ZM787.739 272.578C788.147 273.056 788.557 273.534 788.966 274.012L765.384 279.168L763.492 277.377L787.739 272.578ZM564.284 273.432C567.646 276.853 570.933 280.239 574.212 283.626L569.556 287.83L568.219 287.831L564.371 287.835C564.312 281.983 564.269 277.174 564.269 275.395C564.269 274.76 564.275 274.1 564.284 273.432V273.432ZM514.192 273.473L529.061 274.493L529.564 315.285C524.657 316.489 519.753 317.73 514.855 319.019C514.832 316.319 514.824 314.447 514.816 313.946C514.608 300.532 514.4 286.993 514.192 273.473ZM531.602 274.667L539.943 275.239L540.406 312.692C537.635 313.338 534.865 313.995 532.097 314.666L531.602 274.667ZM542.484 275.413L549.981 275.928L550.397 310.413C547.91 310.968 545.423 311.533 542.937 312.107L542.484 275.413ZM552.522 276.102L561.739 276.734C561.754 281.081 561.884 293.28 562.051 307.872C559.009 308.517 555.969 309.178 552.93 309.849L552.522 276.102ZM367.664 276.2C368.693 277.402 369.722 278.604 370.756 279.805L358.022 294.136L344.439 281.279L367.664 276.2ZM790.84 276.2C791.869 277.402 792.898 278.604 793.932 279.805L781.197 294.136L767.615 281.279L790.84 276.2ZM684.308 276.778L690.41 285.375C682.928 286.563 675.445 287.749 667.962 288.941L668.783 277.66L683.715 276.943C683.923 276.937 684.127 276.881 684.308 276.778ZM608.398 277.065L619.189 278.091L619.425 296.94C616.308 297.48 613.192 298.024 610.077 298.578L608.398 277.065ZM666.228 277.783L665.385 289.35C655.151 290.984 644.916 292.639 634.685 294.347L634.844 279.291L666.228 277.783ZM621.731 278.333L630.612 279.177L630.445 295.059C627.616 295.536 624.787 296.017 621.959 296.504L621.731 278.333ZM758.115 278.4C754.667 287.971 750.741 295.835 746.589 303.009L717.381 292.043L717.586 285.296C731.103 283.092 744.615 280.822 758.115 278.4ZM762.178 279.63L774.64 291.425L755.793 301.811L753.11 299.989C756.314 294.002 759.362 287.429 762.106 279.811C762.131 279.75 762.154 279.691 762.178 279.63ZM372.432 281.741C372.755 282.115 373.079 282.488 373.402 282.861C372.219 284.01 371.023 284.856 369.96 286.515C368.636 288.582 367.786 291.644 367.456 297.699C367.456 297.708 367.456 297.716 367.456 297.725L367.281 302.9L359.867 295.882L372.432 281.741ZM795.608 281.741C795.931 282.115 796.254 282.488 796.578 282.862C795.395 284.011 794.199 284.856 793.136 286.515C791.811 288.582 790.961 291.644 790.631 297.699C790.631 297.708 790.631 297.716 790.631 297.725L790.457 302.9L783.042 295.882L795.608 281.741ZM375.079 284.798C377.86 287.994 380.667 291.185 383.517 294.363L381.73 299.64C381.688 299.765 381.665 299.896 381.663 300.028L380.71 363.366L367.781 363.601L369.992 297.837C370.312 291.974 371.126 289.404 372.099 287.886C372.851 286.712 373.861 285.996 375.079 284.798ZM798.254 284.798C810.804 299.221 823.899 313.507 838.847 327.202L838.958 327.305L839.083 327.39C843.372 330.316 844.645 332.451 845.118 335.3C845.591 338.15 844.985 342.036 844.573 347.535C843.881 356.774 843.417 363.232 843.306 373.208C841.567 374.632 839.714 376.12 837.729 377.68C828.699 384.777 817.411 393.089 806.381 401.011C801.43 404.568 796.57 408.014 791.95 411.269L789.548 405.512L793.168 297.837C793.488 291.974 794.302 289.404 795.275 287.886C796.027 286.712 797.037 285.996 798.254 284.798ZM575.98 285.451C577.913 287.449 579.864 289.461 581.775 291.435C581.574 291.946 581.409 292.495 581.294 293.096C580.816 295.591 581.115 298.82 582.393 303.736C578.916 304.416 575.44 305.108 571.966 305.815L571.339 289.643L575.98 285.451ZM715.032 285.715L714.849 291.758L702.868 292.529C702.706 291.525 702.635 290.258 702.662 289.127C702.674 288.608 702.7 288.134 702.729 287.696C706.83 287.04 710.932 286.381 715.032 285.715ZM606.629 287.03L607.566 299.029C603.668 299.728 599.772 300.438 595.876 301.164C595.01 297.035 594.402 293.965 593.175 291.567C593.041 291.305 592.897 291.053 592.743 290.811C595.343 289.037 596.317 288.394 597.716 288.057C599.155 287.711 601.517 287.608 606.629 287.03ZM700.164 288.109C700.148 288.416 700.132 288.724 700.124 289.067C700.078 291.012 700.109 293.277 700.956 295.042C701.836 296.875 702.824 298.879 703.869 300.972L685.894 303.126L684.422 290.615C689.67 289.782 694.916 288.947 700.164 288.109ZM586.404 289.157C588.825 289.882 589.97 290.877 590.914 292.723C591.878 294.608 592.514 297.531 593.378 301.628C590.548 302.159 587.718 302.7 584.889 303.248C583.625 298.419 583.421 295.489 583.788 293.574C584.156 291.649 585.036 290.579 586.404 289.157ZM568.825 290.369L569.445 306.329C567.825 306.663 566.205 307.002 564.585 307.342C564.514 301.099 564.447 295.219 564.397 290.375L568.825 290.369ZM681.912 291.014L683.373 303.429L669.348 305.11L668.074 293.213C672.686 292.478 677.299 291.746 681.912 291.014ZM411.547 291.936C412.377 291.923 412.948 291.975 413.381 292.106C413.588 292.168 413.783 292.257 413.982 292.363L415.119 307.465C415.121 307.488 415.123 307.51 415.126 307.533C415.912 313.603 415.09 316.799 414.24 318.4C413.998 318.854 413.759 319.174 413.54 319.415C410.593 316.614 407.709 313.791 404.888 310.944L403.737 292.609L404.679 292.502H404.692H404.696C408.064 292.166 410.164 291.959 411.547 291.936H411.547ZM401.211 292.897L402.17 308.173C397.701 303.584 393.367 298.945 389.129 294.27L401.211 292.897ZM776.576 293.256L779.12 295.666L763.011 306.717L758.148 303.412L776.576 293.256ZM353.4 293.257L355.945 295.666L339.835 306.717L334.972 303.412L353.4 293.257ZM665.564 293.613L666.835 305.489L650.835 308.316L648.876 296.304C654.437 295.399 659.999 294.502 665.564 293.613ZM715.98 294.229L737.617 302.353C730 307.441 722.382 312.168 714.761 316.624C710.916 309.278 706.827 301.33 703.766 295.014L715.98 294.229ZM416.694 294.567C417.214 295.037 417.81 295.573 418.524 296.19L440.589 315.219L417.819 314.961C418.063 312.952 418.058 310.425 417.648 307.243L417.651 307.274L417.644 307.206C417.646 307.219 417.647 307.23 417.648 307.243L416.694 294.567ZM385.463 296.53C394.887 306.951 404.789 317.232 415.671 327.202L415.783 327.305L415.908 327.39C420.196 330.316 421.47 332.451 421.943 335.3C422.39 337.994 421.874 341.664 421.468 346.698L383.462 349.215L384.199 300.265L385.463 296.53ZM646.371 296.718L648.334 308.758L634.508 311.202L634.641 298.651C638.549 297.997 642.46 297.357 646.371 296.718ZM357.831 297.451L367.143 306.265L367.17 306.237L366.961 311.309L366.443 312.045L347.715 335.775L340.157 330.944C339.833 330.737 339.46 330.622 339.076 330.611C331.686 330.403 327.348 330.424 323.702 329.862C320.837 329.42 318.289 328.624 314.758 326.998L357.831 297.451ZM781.007 297.451L790.319 306.265L790.345 306.237L790.136 312.453L789.619 312.045L770.891 335.775C761.102 327.769 758.596 331.587 746.877 329.862C744.013 329.42 741.464 328.624 737.933 326.998L781.007 297.451ZM630.4 299.365L630.266 312.123L622.481 312.82L622.271 300.751C624.98 300.285 627.689 299.822 630.4 299.365ZM619.739 301.188L619.945 313.047L611.268 313.824L610.409 302.824C613.518 302.271 616.628 301.727 619.739 301.188ZM751.891 302.231L760.763 308.259L738.877 323.271C743.241 316.521 747.68 309.823 751.891 302.231ZM607.898 303.276L608.776 314.524L605.739 315.876L598.039 305.074C601.324 304.465 604.61 303.866 607.898 303.276ZM705.081 303.372C707.47 308.107 710.052 313.106 712.564 317.904C707.236 320.983 701.907 323.935 696.576 326.79L694.487 304.654L704.904 303.405C704.964 303.398 705.023 303.387 705.081 303.372V303.372ZM740.54 303.451L745.287 305.232C741.52 311.553 737.592 317.403 733.686 323.51C730.588 328.353 727.939 331.749 724.611 335.183C723.358 332.859 720.183 326.944 715.942 318.875C724.139 314.085 732.339 308.981 740.54 303.451ZM691.965 304.956L692.948 315.363L670.85 319.146L669.618 307.635L691.965 304.956ZM592.864 306.04C592.397 310.359 592.635 314.242 593.563 318.613L596.297 331.498C595.619 331.6 594.947 331.7 594.25 331.807L591.606 319.433C590.671 315.06 589.431 311.04 587.138 307.128C589.046 306.76 590.955 306.4 592.864 306.04ZM595.313 307.081L611.278 329.48C607.297 329.972 603.228 330.493 598.815 331.129L596.047 318.086C595.219 314.187 594.976 310.828 595.313 307.081ZM582.945 307.947L578.471 328.205L573.698 327.354L576.676 309.187C578.765 308.768 580.855 308.356 582.945 307.947ZM667.106 308.019L668.345 319.598L653.146 322.497L651.243 310.822L667.106 308.019ZM574.015 309.723L571.198 326.909L564.8 325.768C564.741 320.838 564.689 316.299 564.636 311.658C567.761 311 570.887 310.356 574.015 309.723ZM585.914 310.199C587.435 313.251 588.366 316.421 589.123 319.963L591.739 332.206C588.308 332.756 584.628 333.388 580.63 334.127L585.914 310.199ZM648.743 311.264L650.652 322.972L634.351 326.08L634.481 313.785L648.743 311.264ZM562.102 312.193C562.211 321.688 562.304 329.738 562.426 339.756L550.066 338.707L549.782 314.889C553.885 313.968 557.992 313.068 562.102 312.193ZM630.239 314.674L630.166 321.649L630.109 327.074C627.568 327.431 625.129 327.754 622.747 328.057L622.526 315.365L630.239 314.674ZM547.249 315.456L547.524 338.491L532.646 337.229L532.304 318.97C537.281 317.759 542.262 316.588 547.249 315.456ZM619.99 315.592L620.212 328.377C618.5 328.589 616.792 328.801 615.098 329.008L607.243 317.986L610.762 316.419L619.99 315.592ZM366.854 315.622L366.682 320.74L366.332 331.148L354.691 331.033L366.854 315.622ZM790.03 315.622L789.507 331.148L777.867 331.033L790.03 315.622ZM417.314 317.495L442.691 317.782C442.678 317.95 442.664 318.13 442.652 318.298C442.351 322.417 442.189 326.687 441.826 331.058C436.475 331.12 430.835 331.023 424.82 330.745C423.598 328.403 421.571 326.203 418.529 324.082C417.469 323.111 416.422 322.135 415.379 321.158C415.752 320.753 416.132 320.248 416.481 319.592C416.793 319.006 417.077 318.312 417.314 317.495ZM693.187 317.899L694.148 328.081C689.98 330.291 685.811 332.44 681.641 334.552L671.983 321.529L693.187 317.899ZM445.972 319.399C447.639 320.519 449.202 321.677 450.505 323.11C452.175 324.948 453.468 327.225 454.079 330.615C451.213 330.794 448.268 330.921 445.234 330.997C445.56 326.958 445.722 323.073 445.972 319.399ZM529.777 319.593L530.103 337.014L515.115 335.742C515.009 331.239 514.941 326.96 514.899 323.389C519.853 322.078 524.812 320.816 529.777 319.593ZM713.746 320.154C718.328 328.872 721.838 335.395 722.736 337.058C720.82 338.912 718.655 340.851 716.069 343.099C710.053 348.328 704.531 353.29 699.408 358.038L695.056 352.641L683.176 336.623C693.669 331.584 703.979 325.787 713.746 320.154ZM669.188 322.022L679.345 335.718C671.927 339.451 664.506 343.059 657.081 346.633L653.555 325.004L669.188 322.022ZM510.681 324.518C510.722 327.758 510.782 331.445 510.873 335.382L493.35 333.895L493.254 328.983C498.271 327.818 503.271 326.53 508.371 325.137C509.14 324.927 509.911 324.726 510.681 324.518ZM651.06 325.479L652.5 334.308L634.23 337.678L634.324 328.671L651.06 325.479ZM564.83 328.353L577.923 330.686L575.803 340.284L564.967 339.913C564.913 335.428 564.884 332.874 564.83 328.353ZM490.725 329.557L490.806 333.679L488.648 333.496C488.499 333.483 488.35 333.49 488.203 333.517C487.047 333.726 486.451 333.594 486.064 333.405C485.677 333.216 485.381 332.906 485.045 332.345C484.813 331.959 484.607 331.456 484.365 330.906C486.498 330.483 488.614 330.028 490.725 329.557V329.557ZM630.082 329.64L629.95 342.14L624.172 341.942C624.118 341.725 624.021 341.521 623.888 341.341L616.775 331.362C621.055 330.839 625.404 330.294 630.082 329.64ZM734.403 330.004C738.349 331.931 741.389 333.069 744.487 333.722C745.452 336.96 746.222 339.484 746.769 341.52L710.973 372.38L702.071 361.34C707.222 356.562 712.778 351.566 718.845 346.293C725.79 340.257 730.053 336.075 734.403 330.004ZM480.833 331.576C481.187 332.286 481.587 333.163 482.143 334.088C482.667 334.96 483.426 335.885 484.58 336.447C485.628 336.958 486.929 337.068 488.384 336.87L490.872 337.081L491.135 350.511L472.125 349.998L473.305 332.827C475.849 332.448 478.354 332.029 480.833 331.576ZM612.953 331.831L613.611 332.755C613.008 332.881 612.583 333.421 612.602 334.036L612.732 341.55L600.94 341.145L599.343 333.618C604.168 332.926 608.598 332.365 612.953 331.831ZM470.734 333.194L469.917 345.089L443.28 344.372C444.001 341.271 444.477 338.219 444.821 335.232C454.162 335.012 462.666 334.3 470.734 333.194ZM352.71 333.544C352.761 333.551 352.812 333.554 352.864 333.555L366.246 333.686L365.939 342.838L365.788 347.326L349.865 337.149L352.71 333.544ZM775.885 333.544C775.936 333.551 775.987 333.554 776.038 333.555L789.422 333.686L788.963 347.326L773.041 337.149L775.885 333.544ZM596.825 333.987L598.325 341.056L596.212 340.983L594.782 334.294C595.476 334.187 596.149 334.088 596.825 333.987ZM747.28 334.185C750.711 334.617 754.622 334.659 760.114 334.793C758.767 336.915 757.07 337.374 754.82 338.218L749.111 340.358C748.633 338.643 747.999 336.569 747.28 334.185ZM592.27 334.691L593.596 340.894L579.243 340.402L580.035 336.819C584.481 335.987 588.519 335.291 592.27 334.691ZM615.156 334.922L620.058 341.801L615.273 341.637L615.156 334.922ZM426.179 335.037C431.513 335.259 436.57 335.339 441.397 335.289C441.044 338.251 440.556 341.251 439.82 344.279L425.972 343.906C426.296 340.611 426.564 337.786 426.179 335.037ZM762.772 335.609L769.753 340.072L769.221 403.922L762.274 403.89L762.291 402.456V402.452C762.291 402.448 762.666 374.685 762.638 360.772C762.631 357.329 762.511 350.502 762.511 350.502C762.498 349.787 761.897 349.223 761.182 349.257V349.258C760.791 349.277 760.431 349.474 760.205 349.794L749.645 364.737C749.498 364.946 749.416 365.194 749.412 365.45L748.698 411.03C748.7 411.006 748.701 410.984 748.703 410.96L748.697 411.063L748.698 411.03C748.473 413.429 748.705 415.203 749.336 416.788C749.973 418.389 750.93 419.738 752.092 421.602C752.214 421.798 752.389 421.958 752.596 422.063L759.48 425.546L759.453 427.881C750.644 424.449 741.616 422.97 729.529 423.198H729.528C723.691 423.309 717.141 423.817 709.558 424.694C706.792 425.014 703.916 425.548 700.966 426.233C698.479 424.272 696.199 422.479 693.952 420.714L745.06 357.309C748.444 353.11 750.149 350.528 750.25 347.137C750.29 345.82 750.105 344.439 749.745 342.832L756.034 340.475C759.533 339.646 760.474 338.238 762.772 335.609ZM652.908 336.815L654.696 347.779C647.807 351.089 640.915 354.383 634.019 357.713L634.203 340.265L652.908 336.815ZM493.417 337.297L510.959 338.786C511.072 342.928 511.218 347.123 511.415 351.057L493.677 350.579L493.417 337.297ZM680.881 337.789L693.032 354.174C693.042 354.188 693.053 354.201 693.064 354.215L697.548 359.776C683.339 373.052 672.228 384.666 662.164 395.753C658.601 392.894 655.743 390.526 653.473 388.484C650.175 385.517 648.104 383.79 646.739 382.526C645.375 381.261 644.762 380.549 644.011 379.252C642.613 376.837 640.76 371.989 635.003 360.057C650.28 352.68 665.574 345.499 680.881 337.789V337.789ZM515.202 339.146L530.167 340.415L530.639 365.642L515.129 365.646C515.736 361.541 515.984 357.222 515.732 352.642C515.497 348.392 515.329 343.733 515.202 339.146V339.146ZM532.71 340.632L547.565 341.892L547.848 365.639L533.178 365.642L532.71 340.632ZM772.279 341.685L778.945 345.946L778.694 367.432C776.613 367.892 774.94 369.468 774.339 371.494L772.031 371.483L772.279 341.685ZM349.104 341.686L355.77 345.946L355.518 367.432C353.438 367.892 351.765 369.468 351.163 371.494L348.856 371.483L349.104 341.686ZM550.106 342.108L562.469 343.157C562.68 360.397 562.805 370.35 562.896 377.548L550.4 366.658L550.106 342.108ZM565.009 343.303L575.332 343.656L572.39 384.837C572.386 384.891 572.385 384.945 572.386 384.999C570.151 386.308 567.856 387.595 565.574 388.794C565.557 387.42 565.288 366.07 565.009 343.303H565.009ZM578.717 343.772L594.325 344.307L599.609 369.03C599.627 369.122 599.655 369.211 599.692 369.296C597.027 370.321 594.308 371.438 591.542 372.635C591.507 372.65 591.472 372.667 591.439 372.686C590.534 370.84 589.972 369.528 589.473 368.545C588.908 367.43 588.245 366.53 587.212 366.089C586.178 365.648 585.111 365.63 583.436 365.535C581.968 365.451 579.961 365.332 577.199 365.021L578.717 343.772ZM747.425 344.307C747.628 345.363 747.736 346.273 747.712 347.061C747.634 349.666 746.413 351.583 743.083 355.715L720.313 383.964C720.302 383.949 720.291 383.935 720.279 383.921L712.568 374.358L747.425 344.307ZM596.941 344.397L599.049 344.469L603.983 367.716C603.348 367.94 602.712 368.166 602.071 368.402L596.941 344.397ZM601.664 344.559L612.791 344.94L613.13 364.396C613.133 364.546 613.163 364.693 613.217 364.832C610.998 365.423 608.724 366.113 606.402 366.886L601.664 344.559ZM615.332 345.027L629.915 345.527L629.779 358.449V358.46C629.779 358.46 629.763 360.922 629.753 362.373C625.393 362.366 620.675 363.028 615.666 364.217L615.332 345.027ZM425.736 346.439L439.148 346.8C438.928 347.563 438.693 348.326 438.437 349.091L425.551 348.743C425.574 348.438 425.594 348.164 425.618 347.852C425.654 347.367 425.695 346.904 425.736 346.439ZM442.638 346.895L469.743 347.624L469.585 349.93L441.963 349.186C442.205 348.42 442.429 347.656 442.638 346.895ZM358.29 347.557L364.638 351.614C364.937 351.805 365.279 351.918 365.632 351.942L364.973 371.559L362.401 371.548C361.815 369.506 360.144 367.912 358.058 367.439L358.29 347.557ZM781.465 347.557L787.814 351.614C788.112 351.805 788.454 351.918 788.808 351.942L788.148 371.559L785.576 371.548C784.991 369.506 783.32 367.912 781.234 367.439L781.465 347.557ZM421.27 349.255C420.651 357.574 420.234 363.88 420.13 373.207C418.391 374.632 416.539 376.12 414.554 377.68C406.173 384.266 395.847 391.891 385.588 399.288L385.644 378.566C385.646 377.863 385.076 377.293 384.374 377.293H384.372L367.32 377.308L367.695 366.142L381.983 365.882C382.668 365.87 383.22 365.316 383.23 364.632L383.424 351.757C383.467 351.758 383.51 351.757 383.553 351.754L421.27 349.255ZM425.363 351.279L437.522 351.607C436.19 355.021 434.457 358.455 432.169 361.888C431.324 363.157 429.136 365.433 426.078 368.159C425.56 368.621 424.981 369.118 424.413 369.609C424.559 362.891 424.895 357.645 425.363 351.279ZM441.106 351.703L511.533 353.6C512.109 366.994 508.114 378.051 503.323 388.292C497.457 385.114 494.278 383.579 490.268 382.932C485.996 382.243 480.978 382.525 470.574 382.583C470.568 382.583 470.562 382.583 470.556 382.583L443.577 383.12L424.339 377.038C424.341 376.055 424.338 375.024 424.346 374.108C425.776 372.912 427.133 371.755 428.331 370.687C431.474 367.886 433.744 365.632 434.987 363.765C437.673 359.734 439.643 355.697 441.106 351.703ZM336.845 354.456C336.88 356.757 336.919 358.683 336.923 360.778C336.93 363.795 336.914 367.523 336.89 371.428L328.683 371.39L328.769 365.885L336.845 354.456ZM760.02 354.456C760.056 356.757 760.095 358.683 760.099 360.778C760.105 363.795 760.09 367.523 760.066 371.428L751.859 371.39L751.945 365.885L760.02 354.456ZM700.211 363.079L709.049 374.039L673.491 404.694C670.632 402.458 667.733 400.185 665.48 398.401C675.385 387.493 686.298 376.092 700.211 363.079ZM629.737 364.913C629.705 369.388 629.656 375.602 629.577 383.532C623.842 383.547 617.495 384.704 610.679 386.701C610.625 386.697 610.571 386.696 610.517 386.698C610.261 386.711 610.016 386.802 609.812 386.958C608.488 387.358 607.145 387.791 605.787 388.251C605.66 388.272 605.538 388.313 605.423 388.371C600.959 389.896 596.322 391.725 591.542 393.793C591.459 393.829 591.38 393.874 591.306 393.927C591.306 393.927 576.013 404.884 562.586 411.478C557.083 414.181 552.748 417.424 548.781 417.766C539.076 417.817 534.549 418.24 531.29 417.422L533.434 399.186C534.143 399.251 534.892 399.288 535.696 399.306C538.843 399.376 542.885 399.175 548.869 399.145C548.902 399.145 548.935 399.144 548.968 399.141C554.063 398.716 558.476 395.167 563.705 392.599C577.342 385.901 592.423 375.087 592.648 374.926C606.761 368.827 619.557 364.909 629.737 364.912V364.913ZM577.018 367.555C579.798 367.866 581.848 367.988 583.293 368.07C584.962 368.165 585.859 368.272 586.215 368.424C586.572 368.576 586.725 368.739 587.209 369.693C587.661 370.586 588.288 372.052 589.329 374.151C586.734 375.949 581.788 379.299 575.924 382.88L577.018 367.555ZM633.946 367.675C637.552 375.407 638.892 378.855 640.349 381.371C640.798 382.148 641.274 382.829 641.808 383.481L633.806 383.927C633.872 377.366 633.914 372.048 633.946 367.675ZM547.879 368.178L548.218 396.614C542.568 396.655 538.621 396.832 535.752 396.768C535.023 396.752 534.366 396.721 533.76 396.671L533.226 368.181L547.879 368.178ZM530.687 368.182L531.212 396.259C530.482 396.066 529.811 395.807 529.14 395.461C525.696 393.69 521.87 389.134 511.787 379.033C512.984 375.579 513.998 371.977 514.708 368.185L530.687 368.182ZM356.775 369.83C358.621 369.83 360.091 371.3 360.091 373.146C360.091 374.993 358.621 376.462 356.775 376.462C354.929 376.462 353.459 374.993 353.459 373.146C353.459 371.3 354.929 369.83 356.775 369.83ZM779.95 369.83C781.796 369.83 783.266 371.3 783.266 373.146C783.266 374.993 781.796 376.462 779.95 376.462C778.104 376.462 776.635 374.993 776.635 373.146C776.635 371.3 778.104 369.83 779.95 369.83ZM550.44 370.061L562.938 380.952C562.956 382.409 563.051 390.014 563.052 390.084C562.897 390.161 562.74 390.244 562.586 390.32C557.979 392.583 554.192 395.217 550.753 396.218L550.44 370.061ZM328.643 373.929L336.874 373.967C336.778 387.422 336.576 402.422 336.576 402.422V402.426L336.559 403.879L328.174 403.839L328.643 373.929ZM751.818 373.929L760.049 373.967C759.953 387.422 759.752 402.422 759.752 402.422V402.426L759.734 403.879L751.349 403.839L751.818 373.929ZM348.834 374.023L350.996 374.032C351.355 376.369 353.107 378.259 355.373 378.823L355.07 403.965L348.585 403.935L348.834 374.023ZM772.009 374.023L774.171 374.032C774.531 376.369 776.283 378.259 778.548 378.823L778.246 403.965L771.76 403.935L772.009 374.023ZM362.546 374.088L364.888 374.099L364.031 399.579L363.882 404.006L357.609 403.977L357.912 378.887C360.287 378.414 362.152 376.49 362.546 374.088V374.088ZM785.722 374.088L788.063 374.099L787.057 404.006L780.785 403.977L781.087 378.887C783.462 378.414 785.328 376.49 785.722 374.088V374.088ZM710.644 376.016L718.303 385.514C718.425 385.673 718.583 385.8 718.764 385.885L712.999 393.037L703.645 382.05L710.644 376.016ZM420.108 377.589C420.106 380.324 420.118 383.233 420.164 386.606C420.186 388.241 420.193 395.348 420.196 403.773L411.285 403.179L407.967 387.017C411.008 384.717 413.934 382.473 416.646 380.341C417.842 379.401 418.994 378.485 420.108 377.589ZM843.284 377.589C843.279 380.324 843.294 383.233 843.34 386.606C843.411 391.82 843.35 446.906 843.348 449.103C842.577 449.1 841.842 449.1 840.978 449.089C835.521 449.021 828.401 448.778 820.624 448.053C805.072 446.601 786.889 443.148 774.306 435.575C773.249 434.939 772.586 434.514 771.957 434.117C771.805 433.951 771.627 433.811 771.431 433.701C770.328 433.072 769.244 432.484 768.166 431.915C774.34 427.692 790.761 416.4 808.357 403.761C819.408 395.823 830.723 387.491 839.821 380.341C841.017 379.401 842.169 378.485 843.283 377.589H843.284ZM424.336 379.701L441.789 385.218L441.763 396.212L424.425 395.875C424.419 391.353 424.41 387.712 424.394 386.548C424.361 384.068 424.343 381.814 424.336 379.701H424.336ZM383.102 379.833L383.045 401.126C378.149 404.642 373.344 408.049 368.774 411.268L366.372 405.512L367.235 379.847L383.102 379.833ZM510.83 381.674C520.219 391.148 523.842 395.592 527.979 397.719C528.925 398.206 529.891 398.546 530.924 398.789L528.848 416.456C525.622 414.652 522.014 410.508 513.206 401.611C512.648 401.048 510.642 399.167 508.562 397.212C507.324 396.049 506.199 394.99 505.286 394.127C507.238 390.163 509.166 386.043 510.83 381.674ZM701.721 383.708L711.378 395.05L691.957 419.144C685.323 413.937 680.264 409.987 675.531 406.288L701.721 383.708ZM482.701 385.027C485.734 385.036 487.942 385.129 489.863 385.439C493.494 386.025 496.349 387.399 502.238 390.592C501.14 392.867 500.018 395.104 498.912 397.325L472.016 396.801L472.054 385.108C476.464 385.075 479.991 385.018 482.701 385.027ZM469.515 385.143L469.477 396.752L444.302 396.261L444.327 385.645L469.515 385.143ZM642.256 385.999L642.216 408.542C642.151 408.532 642.085 408.526 642.02 408.526V408.525C641.99 408.526 641.961 408.527 641.931 408.53L633.497 409.013C633.613 401.122 633.705 393.46 633.778 386.471L642.256 385.999ZM629.549 386.072C629.475 393.236 629.38 401.139 629.26 409.256L617.218 409.947L612.129 388.948C618.494 387.134 624.361 386.095 629.549 386.072ZM644.794 386.469C646.198 387.72 648.003 389.257 650.643 391.631C652.963 393.719 655.817 396.088 659.324 398.907C654.351 404.44 649.558 409.889 644.742 415.361L644.794 386.469ZM405.723 388.711L408.657 403.003L388.122 401.635C394.107 397.315 400.104 392.931 405.723 388.711ZM609.692 389.672L622.021 440.552C621.706 440.887 621.384 441.226 621.067 441.563C620.725 441.492 620.386 441.417 620.046 441.344L607.522 390.366C608.251 390.126 608.974 389.895 609.692 389.672ZM605.108 391.184L610.122 411.592L605.258 414.51L595.041 395.069C598.489 393.625 601.85 392.324 605.108 391.184ZM592.696 396.065L603.077 415.818L596.859 419.548C596.294 419.886 596.082 420.601 596.371 421.193L604.277 437.395C596.651 435.496 588.694 433.957 579.267 434.381C574.474 434.597 569.583 434.828 564.68 435.059C564.658 434.877 564.637 434.674 564.622 434.418C564.539 433.061 564.54 431.097 564.552 429.124C564.564 427.15 564.587 425.165 564.536 423.664C564.512 422.913 564.474 422.299 564.382 421.778C564.336 421.517 564.31 421.293 564.108 420.94C564.006 420.764 563.841 420.506 563.442 420.328C563.043 420.15 562.479 420.234 562.194 420.399C559.526 421.947 556.758 423.424 554.297 424.502C551.836 425.579 549.638 426.225 548.399 426.232C540.991 426.27 537.335 425.741 529.033 424.861L530.635 419.887C534.486 420.898 539.202 420.352 548.869 420.304C548.902 420.304 548.935 420.303 548.968 420.3C554.063 419.875 558.476 416.326 563.705 413.758C577.342 407.06 592.423 396.246 592.648 396.084C592.664 396.078 592.68 396.072 592.696 396.065V396.065ZM504.107 396.51C504.919 397.275 505.856 398.155 506.823 399.063C508.903 401.017 511.026 403.019 511.401 403.398C520.632 412.72 524.087 416.994 528.251 419.006L526.913 423.16L502.541 399.636C503.059 398.605 503.581 397.562 504.107 396.51ZM424.428 398.415L431.75 398.558L431.651 438.492C431.46 438.488 431.268 438.484 431.077 438.479L424.414 437.23C424.425 426.381 424.439 411.646 424.428 398.415V398.415ZM434.289 398.606L454.308 398.996L454.249 423.001L434.23 422.732L434.289 398.606ZM456.847 399.046L469.468 399.292L469.39 423.203L456.788 423.035L456.847 399.046ZM472.007 399.341L497.666 399.841C496.753 401.698 495.862 403.548 495.022 405.399C494.872 405.544 494.751 405.715 494.664 405.904C491.893 411.703 488.094 416.017 486.79 423.437C486.784 423.437 486.778 423.437 486.771 423.436L471.929 423.237L472.007 399.341ZM662.636 401.555C664.653 403.153 667.158 405.118 669.646 407.065L651.421 414.484L651.378 414.234C655.081 410.026 658.81 405.811 662.636 401.555ZM501.35 402.017L510.582 410.927C505.642 416.285 503.779 416.265 497 418.415C496.976 418.185 496.947 417.946 496.924 417.717C496.725 415.727 496.61 413.838 496.691 412.114C496.803 411.961 496.893 411.794 496.961 411.617C498.212 408.472 499.729 405.287 501.35 402.017ZM385.575 404.009L408.851 405.561L408.155 434.101L391.762 430.232C388.135 429.376 386.765 428.12 386.113 426.824C385.46 425.529 385.522 423.919 385.527 422.211L385.575 404.009ZM383.033 405.295L382.988 422.204C382.983 423.796 382.81 425.91 383.845 427.966C384.88 430.021 387.12 431.745 391.179 432.703L408.515 436.795C408.617 436.842 408.724 436.876 408.833 436.895L420.181 439.02C420.18 439.259 420.18 439.585 420.18 439.811C419.488 439.929 419.04 440.01 418.284 440.135C412.722 441.06 405.484 442.136 397.6 442.727C381.833 443.908 363.522 443.033 351.13 435.575C348.439 433.955 348.159 433.602 344.942 431.948C350.801 427.941 366.156 417.378 383.033 405.295H383.033ZM411.387 405.73L420.196 406.318C420.197 418.57 420.191 427.352 420.182 436.438L410.682 434.657L411.387 405.73ZM328.134 406.378L336.529 406.418L336.338 422.72L330.882 419.959C329.798 418.232 328.977 417.001 328.52 415.852C328.033 414.627 327.844 413.385 328.055 411.208C328.058 411.174 328.06 411.139 328.06 411.105L328.134 406.378ZM751.31 406.378L759.705 406.418L759.514 422.72L754.058 419.959C752.974 418.232 752.153 417.001 751.696 415.852C751.209 414.627 751.018 413.385 751.23 411.208C751.233 411.174 751.235 411.139 751.235 411.105L751.31 406.378ZM339.069 406.429L346.025 406.462L345.852 427.214C345.777 427.265 345.661 427.346 345.587 427.396L338.862 423.994L339.069 406.429ZM762.245 406.429L769.2 406.462L769.027 427.214C768.952 427.266 768.836 427.346 768.763 427.397L762.038 423.994L762.245 406.429ZM348.563 406.474L355.04 406.504L354.87 420.592L355.433 420.598C352.589 422.573 350.571 423.963 348.405 425.454L348.563 406.474ZM771.739 406.474L778.215 406.504L778.046 420.592L778.61 420.598C775.765 422.573 773.747 423.964 771.581 425.455L771.739 406.474ZM357.579 406.516L364.052 406.546L366.648 412.768C363.351 415.085 360.304 417.211 357.426 419.213L357.579 406.516ZM780.754 406.516L787.228 406.546L789.824 412.768C786.527 415.085 783.48 417.21 780.602 419.213L780.754 406.516ZM671.059 409.231L670.715 419.603L653.5 426.611L651.86 417.047L671.059 409.231ZM673.569 410.13C679.625 414.861 686.633 420.333 695.808 427.559C688.651 429.551 681.188 432.21 673.87 434.773C673.49 434.906 673.116 435.034 672.738 435.166L673.569 410.13ZM642.212 411.052L642.198 418.25C639.246 421.598 636.24 424.98 633.154 428.412C633.267 422.904 633.368 417.26 633.455 411.559L642.077 411.065C642.122 411.063 642.167 411.059 642.212 411.052V411.052ZM629.219 411.802C629.173 414.767 629.128 417.738 629.076 420.679L620.345 420.621C620.168 420.618 619.992 420.652 619.829 420.721L617.825 412.456L629.219 411.802ZM512.412 412.693L518.057 418.142C510.053 425.808 512.72 423.988 512.257 437.4C506.676 437.616 501.086 437.816 495.499 437.99C496.272 435.778 497.093 433.491 497.495 430.392C497.899 427.284 497.618 424.082 497.281 420.991C506.221 418.773 506.142 418.45 512.412 412.693ZM610.757 414.173L617.278 440.716C614.896 440.151 612.552 439.539 610.205 438.921C609.306 438.685 608.404 438.45 607.502 438.215L599.163 421.126L610.757 414.173ZM493.336 415.403C493.392 416.286 493.467 417.171 493.555 418.054C493.974 422.238 494.596 426.429 494.138 429.957C493.722 433.158 492.795 435.362 491.884 438.095L491.792 438.097C490.661 433.087 489.467 428.855 489.948 425.152C490.455 421.241 491.758 418.307 493.336 415.403V415.403ZM649.222 416.683L653.44 441.285C648.962 442.44 644.827 443.214 641.248 443.357C641.247 443.357 641.247 443.357 641.246 443.357C635.699 443.579 630.716 443.188 626.029 442.462C634.486 433.419 641.897 425.009 649.222 416.683H649.222ZM519.889 419.909L526.213 426.014L526.198 436.826C522.402 436.99 518.608 437.152 514.796 437.303C514.394 432.818 514.684 430.377 514.64 427.004C514.607 424.486 517.114 422.456 519.889 419.909ZM670.622 422.382L670.168 436.06C665.239 437.763 660.419 439.359 655.902 440.624L653.939 429.174L670.622 422.382ZM620.42 423.16L629.025 423.217C628.962 426.601 628.897 429.975 628.824 433.198C627.281 434.89 625.704 436.6 624.095 438.329L620.42 423.16ZM561.974 423.422C561.981 423.558 561.994 423.599 561.999 423.749C562.046 425.147 562.025 427.127 562.013 429.109C562.001 431.09 561.997 433.071 562.087 434.571C562.101 434.791 562.121 434.978 562.138 435.176C551.197 435.693 540.014 436.219 528.737 436.713L528.75 427.386C537.089 428.268 540.858 428.81 548.413 428.771C550.395 428.761 552.716 427.966 555.316 426.828C557.444 425.896 559.723 424.688 561.974 423.422ZM434.223 425.272L454.243 425.54L454.21 438.724C447.462 438.734 440.779 438.681 434.191 438.549L434.223 425.272ZM456.782 425.574L486.474 425.972C486.223 429.978 487.207 433.947 488.214 438.198C477.649 438.485 467.125 438.678 456.749 438.719L456.782 425.574ZM762.005 426.824L766.379 429.036C765.459 429.666 765.162 429.869 764.713 430.174C763.8 429.738 762.889 429.316 761.98 428.922L762.005 426.824ZM581.528 438.548C591.76 438.407 600.215 440.669 609.128 443.013C611.014 443.509 612.931 444.003 614.875 444.481C572.575 446.368 533.368 448.435 493.809 449.208L493.715 445.011C493.839 444.008 494.006 443.104 494.203 442.264C523.201 441.382 552.321 439.83 579.457 438.608C580.155 438.577 580.846 438.557 581.528 438.548ZM489.151 442.407C489.262 442.964 489.366 443.528 489.464 444.099C489.463 444.136 489.463 444.172 489.464 444.208L489.579 449.284C478.689 449.471 467.759 449.555 456.723 449.507L456.739 442.951C467.434 442.91 478.276 442.707 489.151 442.407H489.151ZM429.188 442.668H429.192C430.006 442.689 430.825 442.706 431.641 442.725L431.626 449.161C430.514 449.135 429.406 449.112 428.291 449.082H428.287C427.567 449.063 426.243 449.083 424.404 449.098C424.404 448.881 424.408 444.534 424.409 443.382C424.927 443.292 425.513 443.189 425.961 443.114C427.753 442.812 429.162 442.667 429.188 442.668ZM434.18 442.782C440.772 442.913 447.456 442.966 454.2 442.956L454.184 449.496C447.557 449.455 440.889 449.365 434.165 449.22L434.18 442.782ZM420.177 444.106C420.176 445.016 420.173 448.915 420.172 449.103C419.402 449.1 418.666 449.1 417.802 449.09C412.344 449.022 405.224 448.779 397.448 448.053C395.3 447.853 393.1 447.61 390.873 447.328C393.263 447.247 395.621 447.119 397.918 446.947C405.991 446.342 413.356 445.245 418.979 444.31C419.414 444.238 419.763 444.176 420.176 444.106H420.177ZM372.73 448.385C380.896 450.358 389.307 451.544 397.055 452.267C398.3 452.383 399.521 452.483 400.728 452.576L399.96 459.997L371.951 457.415L372.73 448.385ZM527.633 452.494C527.389 452.955 527.163 453.376 526.861 453.958C523.658 460.144 520.156 467.223 516.358 473.853C511.724 481.943 506.963 489.083 497.351 494.819C487.461 500.721 484.174 500.476 471.621 499.401L369.088 490.626L371.733 459.945L385.031 461.171L383.186 481.052C383.011 482.753 385.573 482.991 385.714 481.287L387.559 461.404L399.699 462.523L397.653 482.297C397.471 483.987 400.011 484.249 400.179 482.558L402.227 462.756L421.678 464.549L419.874 483.987C419.699 485.688 422.261 485.926 422.402 484.222L424.206 464.782L428.724 465.199L435.086 478.57C435.795 480.147 438.154 479.025 437.379 477.48L425.885 453.322C426.981 453.312 427.85 453.304 428.174 453.312H428.178C432.914 453.437 437.617 453.531 442.298 453.602L440.001 477.905C439.802 479.623 442.402 479.869 442.528 478.144L444.844 453.635C451.189 453.718 457.49 453.756 463.759 453.752L444.867 478.513C443.786 479.866 445.867 481.453 446.885 480.053L466.955 453.748C468.232 453.744 469.507 453.738 470.782 453.731L467.882 487.56C467.73 489.253 470.274 489.472 470.412 487.777L473.331 453.717C478.795 453.678 484.24 453.609 489.674 453.516L490.093 472.091C490.095 474.975 494.451 474.877 494.323 471.996L493.905 453.441C505.153 453.221 516.372 452.889 527.633 452.494H527.633ZM403.261 452.76C408.735 453.123 413.698 453.27 417.749 453.321C419.795 453.346 421.533 453.345 423.081 453.339L427.455 462.532L402.488 460.23L403.261 452.76Z" fill="url(#paint0_radial_691_6657)"/>
<circle cx="718.198" cy="147.709" r="9.3581" transform="rotate(14.3938 718.198 147.709)" fill="white" fill-opacity="0.6"/>
<circle cx="718.198" cy="147.709" r="6.3581" transform="rotate(14.3938 718.198 147.709)" stroke="#00FFC2" stroke-opacity="0.6" stroke-width="6"/>
<circle cx="604.563" cy="225.299" r="7.10627" transform="rotate(14.3938 604.563 225.299)" fill="white" stroke="#00FFC2" stroke-width="6"/>
<circle cx="698.159" cy="358.655" r="18.5607" transform="rotate(14.3938 698.159 358.655)" fill="white" fill-opacity="0.6"/>
<circle cx="698.159" cy="358.655" r="15.5607" transform="rotate(14.3938 698.159 358.655)" stroke="#00FFC2" stroke-opacity="0.6" stroke-width="6"/>
<circle cx="501.367" cy="191.236" r="14.0398" fill="white" stroke="#00FFC2" stroke-width="6"/>
<circle cx="441.392" cy="320.163" r="8.35987" fill="white" stroke="#00FFC2" stroke-width="6"/>
<path d="M2.83981 174.5L11.5001 183.16L20.1603 174.5L11.5001 165.84L2.83981 174.5ZM175 174.5L175.715 173.182L175.381 173L175 173L175 174.5ZM430.215 311.181L175.715 173.182L174.285 175.819L428.785 313.819L430.215 311.181ZM175 173L11.5001 173L11.5001 176L175 176L175 173Z" fill="#00FFC2"/>
<defs>
<radialGradient id="paint0_radial_691_6657" cx="0" cy="0" r="1" gradientUnits="userSpaceOnUse" gradientTransform="translate(597.941 302.902) rotate(90) scale(302.902 426.941)">
<stop stop-color="white"/>
<stop offset="1" stop-color="white" stop-opacity="0"/>
</radialGradient>
</defs>
</svg>
