<svg width="48" height="48" viewBox="0 0 48 48" fill="none" xmlns="http://www.w3.org/2000/svg">
<mask id="path-1-inside-1_1076_960" fill="white">
<path d="M38.6379 10.4011C35.8945 9.16388 32.9538 8.24941 29.8786 7.72941C29.8513 7.72415 29.8229 7.72754 29.7975 7.73911C29.7722 7.75067 29.751 7.76984 29.737 7.79396C29.3604 8.45561 28.9409 9.31809 28.6468 9.99947C25.3853 9.51217 22.0696 9.51217 18.8081 9.99947C18.4806 9.24432 18.1112 8.50801 17.7018 7.79396C17.6879 7.76955 17.6669 7.74994 17.6416 7.73777C17.6163 7.72559 17.5878 7.72143 17.5601 7.72582C14.4867 8.24582 11.5461 9.1603 8.80085 10.3993C8.77723 10.4092 8.75721 10.4261 8.74347 10.4477C3.16337 18.6511 1.63386 26.6519 2.38517 34.5523C2.38726 34.5716 2.39326 34.5903 2.40282 34.6073C2.41237 34.6243 2.42528 34.6391 2.44075 34.6509C5.69771 37.0221 9.33042 38.8285 13.1868 39.9943C13.2136 40.0026 13.2424 40.0026 13.2693 39.9942C13.2961 39.9859 13.3199 39.9697 13.3374 39.9477C14.1658 38.836 14.9045 37.6615 15.5357 36.4278C15.5734 36.3561 15.5375 36.2701 15.4622 36.2414C14.3039 35.8052 13.1815 35.2788 12.1055 34.667C12.0862 34.656 12.0699 34.6403 12.0581 34.6214C12.0463 34.6026 12.0394 34.581 12.038 34.5588C12.0366 34.5366 12.0407 34.5144 12.05 34.4942C12.0592 34.4739 12.0734 34.4563 12.0912 34.4429C12.3171 34.2761 12.543 34.1022 12.7582 33.9283C12.7776 33.9126 12.8009 33.9027 12.8256 33.8995C12.8503 33.8963 12.8754 33.9001 12.8981 33.9103C19.9395 37.0734 27.5656 37.0734 34.5246 33.9103C34.5473 33.8995 34.5726 33.8952 34.5977 33.8981C34.6227 33.901 34.6465 33.9108 34.6662 33.9265C34.8814 34.1022 35.1055 34.2761 35.3332 34.4429C35.3512 34.456 35.3656 34.4734 35.3752 34.4935C35.3847 34.5135 35.3892 34.5356 35.3881 34.5579C35.3871 34.5801 35.3805 34.6017 35.369 34.6207C35.3576 34.6398 35.3416 34.6557 35.3225 34.667C34.2502 35.2839 33.1349 35.8056 31.964 36.2396C31.946 36.2461 31.9297 36.2564 31.916 36.2698C31.9023 36.2831 31.8916 36.2992 31.8846 36.3171C31.8777 36.3349 31.8746 36.354 31.8756 36.3731C31.8766 36.3922 31.8817 36.4109 31.8905 36.4278C32.536 37.6597 33.2748 38.8324 34.087 39.9459C34.1039 39.9687 34.1275 39.9858 34.1544 39.9948C34.1814 40.0038 34.2104 40.0042 34.2377 39.9961C38.1006 38.8335 41.7392 37.0263 44.9998 34.6509C45.0157 34.6398 45.0291 34.6254 45.0389 34.6087C45.0488 34.592 45.0551 34.5734 45.0572 34.5541C45.9537 25.4201 43.5546 17.4838 38.6935 10.4513C38.6816 10.4285 38.6618 10.4107 38.6379 10.4011ZM16.5882 29.7414C14.4688 29.7414 12.7205 27.8246 12.7205 25.4738C12.7205 23.1213 14.4347 21.2063 16.5882 21.2063C18.7579 21.2063 20.49 23.1374 20.4559 25.4738C20.4559 27.8264 18.7418 29.7414 16.5882 29.7414ZM30.8882 29.7414C28.7669 29.7414 27.0205 27.8246 27.0205 25.4738C27.0205 23.1213 28.7329 21.2063 30.8882 21.2063C33.0578 21.2063 34.7899 23.1374 34.7559 25.4738C34.7559 27.8264 33.0596 29.7414 30.8882 29.7414Z"/>
</mask>
<path d="M38.6379 10.4011C35.8945 9.16388 32.9538 8.24941 29.8786 7.72941C29.8513 7.72415 29.8229 7.72754 29.7975 7.73911C29.7722 7.75067 29.751 7.76984 29.737 7.79396C29.3604 8.45561 28.9409 9.31809 28.6468 9.99947C25.3853 9.51217 22.0696 9.51217 18.8081 9.99947C18.4806 9.24432 18.1112 8.50801 17.7018 7.79396C17.6879 7.76955 17.6669 7.74994 17.6416 7.73777C17.6163 7.72559 17.5878 7.72143 17.5601 7.72582C14.4867 8.24582 11.5461 9.1603 8.80085 10.3993C8.77723 10.4092 8.75721 10.4261 8.74347 10.4477C3.16337 18.6511 1.63386 26.6519 2.38517 34.5523C2.38726 34.5716 2.39326 34.5903 2.40282 34.6073C2.41237 34.6243 2.42528 34.6391 2.44075 34.6509C5.69771 37.0221 9.33042 38.8285 13.1868 39.9943C13.2136 40.0026 13.2424 40.0026 13.2693 39.9942C13.2961 39.9859 13.3199 39.9697 13.3374 39.9477C14.1658 38.836 14.9045 37.6615 15.5357 36.4278C15.5734 36.3561 15.5375 36.2701 15.4622 36.2414C14.3039 35.8052 13.1815 35.2788 12.1055 34.667C12.0862 34.656 12.0699 34.6403 12.0581 34.6214C12.0463 34.6026 12.0394 34.581 12.038 34.5588C12.0366 34.5366 12.0407 34.5144 12.05 34.4942C12.0592 34.4739 12.0734 34.4563 12.0912 34.4429C12.3171 34.2761 12.543 34.1022 12.7582 33.9283C12.7776 33.9126 12.8009 33.9027 12.8256 33.8995C12.8503 33.8963 12.8754 33.9001 12.8981 33.9103C19.9395 37.0734 27.5656 37.0734 34.5246 33.9103C34.5473 33.8995 34.5726 33.8952 34.5977 33.8981C34.6227 33.901 34.6465 33.9108 34.6662 33.9265C34.8814 34.1022 35.1055 34.2761 35.3332 34.4429C35.3512 34.456 35.3656 34.4734 35.3752 34.4935C35.3847 34.5135 35.3892 34.5356 35.3881 34.5579C35.3871 34.5801 35.3805 34.6017 35.369 34.6207C35.3576 34.6398 35.3416 34.6557 35.3225 34.667C34.2502 35.2839 33.1349 35.8056 31.964 36.2396C31.946 36.2461 31.9297 36.2564 31.916 36.2698C31.9023 36.2831 31.8916 36.2992 31.8846 36.3171C31.8777 36.3349 31.8746 36.354 31.8756 36.3731C31.8766 36.3922 31.8817 36.4109 31.8905 36.4278C32.536 37.6597 33.2748 38.8324 34.087 39.9459C34.1039 39.9687 34.1275 39.9858 34.1544 39.9948C34.1814 40.0038 34.2104 40.0042 34.2377 39.9961C38.1006 38.8335 41.7392 37.0263 44.9998 34.6509C45.0157 34.6398 45.0291 34.6254 45.0389 34.6087C45.0488 34.592 45.0551 34.5734 45.0572 34.5541C45.9537 25.4201 43.5546 17.4838 38.6935 10.4513C38.6816 10.4285 38.6618 10.4107 38.6379 10.4011ZM16.5882 29.7414C14.4688 29.7414 12.7205 27.8246 12.7205 25.4738C12.7205 23.1213 14.4347 21.2063 16.5882 21.2063C18.7579 21.2063 20.49 23.1374 20.4559 25.4738C20.4559 27.8264 18.7418 29.7414 16.5882 29.7414ZM30.8882 29.7414C28.7669 29.7414 27.0205 27.8246 27.0205 25.4738C27.0205 23.1213 28.7329 21.2063 30.8882 21.2063C33.0578 21.2063 34.7899 23.1374 34.7559 25.4738C34.7559 27.8264 33.0596 29.7414 30.8882 29.7414Z" fill="black"/>
<path d="M38.6379 10.4011L38.2268 11.3127L38.2471 11.3219L38.2679 11.3301L38.6379 10.4011ZM29.8786 7.72941L29.6901 8.71148L29.701 8.71357L29.7119 8.71541L29.8786 7.72941ZM29.737 7.79396L28.8721 7.29187L28.8679 7.29935L29.737 7.79396ZM28.6468 9.99947L28.499 10.9885L29.26 11.1022L29.5649 10.3957L28.6468 9.99947ZM18.8081 9.99947L17.8907 10.3974L18.1963 11.102L18.9559 10.9885L18.8081 9.99947ZM17.7018 7.79396L16.8324 8.28812L16.8343 8.2914L17.7018 7.79396ZM17.5601 7.72582L17.4035 6.73811L17.3933 6.73984L17.5601 7.72582ZM8.80085 10.3993L9.18763 11.3215L9.2 11.3163L9.21223 11.3108L8.80085 10.3993ZM8.74347 10.4477L9.57031 11.0102L9.57906 10.9973L9.5874 10.9842L8.74347 10.4477ZM2.38517 34.5523L1.38957 34.647L1.39095 34.6597L2.38517 34.5523ZM2.44075 34.6509L1.83404 35.4458L1.84303 35.4527L1.85217 35.4593L2.44075 34.6509ZM13.1868 39.9943L13.481 39.0386L13.4761 39.0371L13.1868 39.9943ZM13.3374 39.9477L14.1201 40.5701L14.1298 40.5578L14.1392 40.5452L13.3374 39.9477ZM15.5357 36.4278L14.6503 35.963L14.6455 35.9724L15.5357 36.4278ZM15.4622 36.2414L15.8182 35.3069L15.8146 35.3055L15.4622 36.2414ZM12.1055 34.667L11.6098 35.5355L11.6113 35.5364L12.1055 34.667ZM12.0912 34.4429L11.4973 33.6383L11.4888 33.6447L12.0912 34.4429ZM12.7582 33.9283L12.1299 33.1503L12.1296 33.1506L12.7582 33.9283ZM12.8981 33.9103L12.4864 34.8217L12.4883 34.8225L12.8981 33.9103ZM34.5246 33.9103L34.9383 34.8207L34.9468 34.8169L34.9552 34.8128L34.5246 33.9103ZM34.6662 33.9265L35.2988 33.1519L35.2889 33.144L34.6662 33.9265ZM35.3332 34.4429L34.7424 35.2497L34.7425 35.2498L35.3332 34.4429ZM35.3225 34.667L35.8212 35.5339L35.8332 35.5268L35.3225 34.667ZM31.964 36.2396L32.3053 37.1796L32.3115 37.1773L31.964 36.2396ZM31.8905 36.4278L31.0026 36.8879L31.0047 36.892L31.8905 36.4278ZM34.087 39.9459L33.2791 40.5352L33.2828 40.5403L34.087 39.9459ZM34.2377 39.9961L34.5244 40.9541L34.5258 40.9537L34.2377 39.9961ZM44.9998 34.6509L44.4268 33.8313L44.4188 33.8369L44.411 33.8426L44.9998 34.6509ZM45.0572 34.5541L46.0513 34.6631L46.0524 34.6518L45.0572 34.5541ZM38.6935 10.4513L37.8068 10.9137L37.8355 10.9688L37.8709 11.0199L38.6935 10.4513ZM20.4559 25.4738L19.4561 25.4593L19.4559 25.4666V25.4738H20.4559ZM34.7559 25.4738L33.756 25.4593L33.7559 25.4666V25.4738H34.7559ZM39.049 9.48953C36.2299 8.21817 33.2072 7.27807 30.0454 6.74341L29.7119 8.71541C32.7004 9.22075 35.559 10.1096 38.2268 11.3127L39.049 9.48953ZM30.0672 6.74734C29.8361 6.70299 29.597 6.73157 29.3829 6.82914L30.2122 8.64908C30.0489 8.72352 29.8664 8.74532 29.6901 8.71148L30.0672 6.74734ZM29.3829 6.82914C29.1688 6.9267 28.9903 7.08841 28.8722 7.29189L30.6018 8.29603C30.5117 8.45127 30.3755 8.57465 30.2122 8.64908L29.3829 6.82914ZM28.8679 7.29935C28.47 7.9985 28.0344 8.89471 27.7287 9.60321L29.5649 10.3957C29.8473 9.74147 30.2509 8.91272 30.6061 8.28858L28.8679 7.29935ZM28.7946 9.01044C25.4351 8.50851 22.0198 8.50851 18.6603 9.01044L18.9559 10.9885C22.1194 10.5158 25.3355 10.5158 28.499 10.9885L28.7946 9.01044ZM19.7255 9.60154C19.3832 8.81233 18.9972 8.0428 18.5693 7.29652L16.8343 8.2914C17.2252 8.97323 17.5779 9.67632 17.8907 10.3974L19.7255 9.60154ZM18.5711 7.29981C18.4567 7.09854 18.2837 6.93695 18.075 6.8366L17.2081 8.63893C17.0501 8.56293 16.919 8.44055 16.8324 8.28812L18.5711 7.29981ZM18.075 6.8366C17.8664 6.73625 17.6322 6.70191 17.4035 6.73816L17.7167 8.71349C17.5435 8.74095 17.3661 8.71493 17.2081 8.63893L18.075 6.8366ZM17.3933 6.73984C14.2332 7.2745 11.2105 8.21462 8.38947 9.48786L9.21223 11.3108C11.8816 10.106 14.7403 9.21714 17.7269 8.71181L17.3933 6.73984ZM8.41406 9.47716C8.20229 9.56598 8.02274 9.71747 7.89954 9.91128L9.5874 10.9842C9.49167 11.1348 9.35218 11.2525 9.18763 11.3215L8.41406 9.47716ZM7.91663 9.8853C2.19733 18.2933 0.617696 26.5294 1.38966 34.6469L3.38067 34.4576C2.65002 26.7744 4.12941 19.0089 9.57031 11.0102L7.91663 9.8853ZM1.39095 34.6597C1.40762 34.8139 1.45549 34.9632 1.53167 35.0983L3.27397 34.1163C3.33103 34.2175 3.3669 34.3293 3.37938 34.4449L1.39095 34.6597ZM1.53167 35.0983C1.60783 35.2334 1.7107 35.3517 1.83404 35.4458L3.04746 33.856C3.13986 33.9265 3.21692 34.0151 3.27397 34.1163L1.53167 35.0983ZM1.85217 35.4593C5.19981 37.8966 8.93366 39.7532 12.8974 40.9515L13.4761 39.0371C9.72717 37.9037 6.19561 36.1477 3.02933 33.8425L1.85217 35.4593ZM12.8925 40.95C13.1117 41.0175 13.346 41.0173 13.5649 40.9495L12.9736 39.039C13.1388 38.9878 13.3156 38.9877 13.481 39.0386L12.8925 40.95ZM13.5649 40.9495C13.7839 40.8817 13.9774 40.7495 14.1201 40.5701L12.5547 39.3253C12.6623 39.1899 12.8083 39.0901 12.9736 39.039L13.5649 40.9495ZM14.1392 40.5452C14.999 39.3913 15.7679 38.1696 16.426 36.8833L14.6455 35.9724C14.0412 37.1534 13.3325 38.2806 12.5355 39.3502L14.1392 40.5452ZM16.4211 36.8927C16.7559 36.2549 16.416 35.5346 15.8182 35.3069L15.1062 37.1759C14.659 37.0055 14.3908 36.4573 14.6503 35.963L16.4211 36.8927ZM15.8146 35.3055C14.7052 34.8877 13.6303 34.3836 12.5997 33.7977L11.6113 35.5364C12.7328 36.1739 13.9025 36.7226 15.1098 37.1772L15.8146 35.3055ZM12.6013 33.7986C12.7257 33.8696 12.8305 33.9704 12.9064 34.0919L11.2098 35.1509C11.3092 35.3103 11.4467 35.4424 11.6098 35.5355L12.6013 33.7986ZM12.9064 34.0919C12.9823 34.2135 13.0268 34.352 13.0359 34.495L11.04 34.6227C11.052 34.8101 11.1104 34.9916 11.2098 35.1509L12.9064 34.0919ZM13.0359 34.495C13.0451 34.638 13.0186 34.781 12.9588 34.9112L11.1411 34.0771C11.0628 34.2478 11.028 34.4353 11.04 34.6227L13.0359 34.495ZM12.9588 34.9112C12.8991 35.0414 12.808 35.1548 12.6936 35.2411L11.4888 33.6447C11.3388 33.7579 11.2194 33.9064 11.1411 34.0771L12.9588 34.9112ZM12.685 35.2475C12.9217 35.0728 13.1593 34.8899 13.3868 34.706L12.1296 33.1506C11.9268 33.3145 11.7125 33.4795 11.4973 33.6383L12.685 35.2475ZM13.3865 34.7063C13.2618 34.8069 13.1117 34.871 12.9528 34.8914L12.6984 32.9076C12.4901 32.9343 12.2933 33.0183 12.1299 33.1503L13.3865 34.7063ZM12.9528 34.8914C12.7938 34.9118 12.6324 34.8876 12.4864 34.8217L13.3098 32.999C13.1184 32.9126 12.9067 32.8809 12.6984 32.9076L12.9528 34.8914ZM12.4883 34.8225C19.7889 38.1019 27.7149 38.1039 34.9383 34.8207L34.1108 33C27.4162 36.0428 20.0902 36.0448 13.3078 32.9982L12.4883 34.8225ZM34.9552 34.8128C34.8088 34.8827 34.6457 34.91 34.4845 34.8917L34.7109 32.9045C34.4996 32.8805 34.2858 32.9163 34.0939 33.0078L34.9552 34.8128ZM34.4845 34.8917C34.3233 34.8733 34.1705 34.81 34.0436 34.709L35.2889 33.144C35.1224 33.0115 34.9221 32.9286 34.7109 32.9045L34.4845 34.8917ZM34.0337 34.701C34.2618 34.8873 34.4998 35.0721 34.7424 35.2497L35.924 33.6361C35.7112 33.4802 35.501 33.3171 35.2987 33.152L34.0337 34.701ZM34.7425 35.2498C34.6271 35.1653 34.5344 35.0534 34.4727 34.9243L36.2776 34.0626C36.1968 33.8934 36.0753 33.7468 35.9239 33.636L34.7425 35.2498ZM34.4727 34.9243C34.4111 34.7952 34.3824 34.6528 34.3893 34.5099L36.387 34.6058C36.396 34.4185 36.3584 34.2318 36.2776 34.0626L34.4727 34.9243ZM34.3893 34.5099C34.3961 34.367 34.4383 34.228 34.5121 34.1054L36.226 35.136C36.3227 34.9753 36.378 34.7931 36.387 34.6058L34.3893 34.5099ZM34.5121 34.1054C34.5858 33.9828 34.6887 33.8803 34.8118 33.8073L35.8332 35.5268C35.9944 35.431 36.1294 35.2967 36.226 35.136L34.5121 34.1054ZM34.8238 33.8002C33.8006 34.3888 32.7359 34.887 31.6165 35.3019L32.3115 37.1773C33.5339 36.7242 34.6998 36.1789 35.8211 35.5338L34.8238 33.8002ZM31.6228 35.2996C31.4711 35.3546 31.3329 35.4414 31.2174 35.5542L32.6145 36.9853C32.5264 37.0713 32.4209 37.1376 32.3053 37.1795L31.6228 35.2996ZM31.2174 35.5542C31.1019 35.667 31.0118 35.803 30.9531 35.9533L32.8161 36.6808C32.7714 36.7955 32.7026 36.8993 32.6145 36.9853L31.2174 35.5542ZM30.9531 35.9533C30.8944 36.1037 30.8685 36.2648 30.877 36.4259L32.8742 36.3202C32.8807 36.4431 32.8609 36.5661 32.8161 36.6808L30.9531 35.9533ZM30.877 36.4259C30.8855 36.5871 30.9284 36.7446 31.0026 36.8879L32.7784 35.9678C32.835 36.0771 32.8677 36.1973 32.8742 36.3202L30.877 36.4259ZM31.0047 36.892C31.6747 38.1706 32.44 39.3849 33.2791 40.5352L34.8949 39.3566C34.1095 38.2798 33.3973 37.1488 32.7763 35.9637L31.0047 36.892ZM33.2828 40.5403C33.4221 40.7286 33.616 40.8694 33.8382 40.9435L34.4706 39.0461C34.6389 39.1022 34.7858 39.2088 34.8912 39.3515L33.2828 40.5403ZM33.8382 40.9435C34.0603 41.0175 34.3 41.0213 34.5244 40.9541L33.9509 39.0381C34.1209 38.9872 34.3024 38.99 34.4706 39.0461L33.8382 40.9435ZM34.5258 40.9537C38.4967 39.7586 42.237 37.9009 45.5886 35.4591L44.411 33.8426C41.2415 36.1517 37.7045 37.9084 33.9495 39.0385L34.5258 40.9537ZM45.5728 35.4705C45.7054 35.3777 45.8167 35.2577 45.8992 35.1185L44.1787 34.0989C44.2414 33.9931 44.326 33.9018 44.4268 33.8313L45.5728 35.4705ZM45.8992 35.1185C45.9818 34.9792 46.0336 34.824 46.0512 34.6631L44.0631 34.445C44.0765 34.3228 44.1159 34.2047 44.1787 34.0989L45.8992 35.1185ZM46.0524 34.6518C46.9739 25.2635 44.5006 17.0939 39.5161 9.88271L37.8709 11.0199C42.6085 17.8738 44.9335 25.5766 44.062 34.4564L46.0524 34.6518ZM39.5802 9.98897C39.4575 9.75369 39.2544 9.57028 39.0079 9.4721L38.2679 11.3301C38.0693 11.251 37.9056 11.1033 37.8068 10.9137L39.5802 9.98897ZM16.5882 28.7414C15.1096 28.7414 13.7205 27.3652 13.7205 25.4738H11.7205C11.7205 28.284 13.828 30.7414 16.5882 30.7414V28.7414ZM13.7205 25.4738C13.7205 23.575 15.0807 22.2063 16.5882 22.2063V20.2063C13.7888 20.2063 11.7205 22.6676 11.7205 25.4738H13.7205ZM16.5882 22.2063C18.1192 22.2063 19.4832 23.5966 19.4561 25.4593L21.4558 25.4884C21.4968 22.6783 19.3966 20.2063 16.5882 20.2063V22.2063ZM19.4559 25.4738C19.4559 27.3727 18.0958 28.7414 16.5882 28.7414V30.7414C19.3877 30.7414 21.4559 28.2801 21.4559 25.4738H19.4559ZM30.8882 28.7414C29.408 28.7414 28.0205 27.3655 28.0205 25.4738H26.0205C26.0205 28.2837 28.1258 30.7414 30.8882 30.7414V28.7414ZM28.0205 25.4738C28.0205 23.5747 29.3791 22.2063 30.8882 22.2063V20.2063C28.0866 20.2063 26.0205 22.6679 26.0205 25.4738H28.0205ZM30.8882 22.2063C32.4191 22.2063 33.7831 23.5966 33.756 25.4593L35.7558 25.4884C35.7967 22.6783 33.6965 20.2063 30.8882 20.2063V22.2063ZM33.7559 25.4738C33.7559 27.3759 32.4108 28.7414 30.8882 28.7414V30.7414C33.7084 30.7414 35.7559 28.2769 35.7559 25.4738H33.7559Z" fill="white" mask="url(#path-1-inside-1_1076_960)"/>
</svg>
