<svg width="48" height="48" viewBox="0 0 48 48" fill="none" xmlns="http://www.w3.org/2000/svg">
<mask id="mask0_1204_653" style="mask-type:alpha" maskUnits="userSpaceOnUse" x="2" y="7" width="44" height="34">
<path d="M38.6379 10.4011C35.8945 9.16388 32.9538 8.24941 29.8786 7.72941C29.8513 7.72415 29.8229 7.72754 29.7975 7.73911C29.7722 7.75067 29.751 7.76984 29.737 7.79396C29.3604 8.45561 28.9409 9.31809 28.6468 9.99947C25.3853 9.51217 22.0696 9.51217 18.8081 9.99947C18.4806 9.24432 18.1112 8.50801 17.7018 7.79396C17.6879 7.76955 17.6669 7.74994 17.6416 7.73777C17.6163 7.72559 17.5878 7.72143 17.5601 7.72582C14.4867 8.24582 11.5461 9.1603 8.80085 10.3993C8.77723 10.4092 8.75721 10.4261 8.74347 10.4477C3.16337 18.6511 1.63386 26.6519 2.38517 34.5523C2.38726 34.5716 2.39326 34.5903 2.40282 34.6073C2.41237 34.6243 2.42528 34.6391 2.44075 34.6509C5.69771 37.0221 9.33042 38.8285 13.1868 39.9943C13.2136 40.0026 13.2424 40.0026 13.2693 39.9942C13.2961 39.9859 13.3199 39.9697 13.3374 39.9477C14.1658 38.836 14.9045 37.6615 15.5357 36.4278C15.5734 36.3561 15.5375 36.2701 15.4622 36.2414C14.3039 35.8052 13.1815 35.2788 12.1055 34.667C12.0862 34.656 12.0699 34.6403 12.0581 34.6214C12.0463 34.6026 12.0394 34.581 12.038 34.5588C12.0366 34.5366 12.0407 34.5144 12.05 34.4942C12.0592 34.4739 12.0734 34.4563 12.0912 34.4429C12.3171 34.2761 12.543 34.1022 12.7582 33.9283C12.7776 33.9126 12.8009 33.9027 12.8256 33.8995C12.8503 33.8963 12.8754 33.9001 12.8981 33.9103C19.9395 37.0734 27.5656 37.0734 34.5246 33.9103C34.5473 33.8995 34.5726 33.8952 34.5977 33.8981C34.6227 33.901 34.6465 33.9108 34.6662 33.9265C34.8814 34.1022 35.1055 34.2761 35.3332 34.4429C35.3512 34.456 35.3656 34.4734 35.3752 34.4935C35.3847 34.5135 35.3892 34.5356 35.3881 34.5579C35.3871 34.5801 35.3805 34.6017 35.369 34.6207C35.3576 34.6398 35.3416 34.6557 35.3225 34.667C34.2502 35.2839 33.1349 35.8056 31.964 36.2396C31.946 36.2461 31.9297 36.2564 31.916 36.2698C31.9023 36.2831 31.8916 36.2992 31.8846 36.3171C31.8777 36.3349 31.8746 36.354 31.8756 36.3731C31.8766 36.3922 31.8817 36.4109 31.8905 36.4278C32.536 37.6597 33.2748 38.8324 34.087 39.9459C34.1039 39.9687 34.1275 39.9858 34.1544 39.9948C34.1814 40.0038 34.2104 40.0042 34.2377 39.9961C38.1006 38.8335 41.7392 37.0263 44.9998 34.6509C45.0157 34.6398 45.0291 34.6254 45.0389 34.6087C45.0488 34.592 45.0551 34.5734 45.0572 34.5541C45.9537 25.4201 43.5546 17.4838 38.6935 10.4513C38.6816 10.4285 38.6618 10.4107 38.6379 10.4011ZM16.5882 29.7414C14.4688 29.7414 12.7205 27.8246 12.7205 25.4738C12.7205 23.1213 14.4347 21.2063 16.5882 21.2063C18.7579 21.2063 20.49 23.1374 20.4559 25.4738C20.4559 27.8264 18.7418 29.7414 16.5882 29.7414ZM30.8882 29.7414C28.7669 29.7414 27.0205 27.8246 27.0205 25.4738C27.0205 23.1213 28.7329 21.2063 30.8882 21.2063C33.0578 21.2063 34.7899 23.1374 34.7559 25.4738C34.7559 27.8264 33.0596 29.7414 30.8882 29.7414Z" fill="white"/>
</mask>
<g mask="url(#mask0_1204_653)">
<path d="M38.6379 10.4011C35.8945 9.16388 32.9538 8.24941 29.8786 7.72941C29.8513 7.72415 29.8229 7.72754 29.7975 7.73911C29.7722 7.75067 29.751 7.76984 29.737 7.79396C29.3604 8.45561 28.9409 9.31809 28.6468 9.99947C25.3853 9.51217 22.0696 9.51217 18.8081 9.99947C18.4806 9.24432 18.1112 8.50801 17.7018 7.79396C17.6879 7.76955 17.6669 7.74994 17.6416 7.73777C17.6163 7.72559 17.5878 7.72143 17.5601 7.72582C14.4867 8.24582 11.5461 9.1603 8.80085 10.3993C8.77723 10.4092 8.75721 10.4261 8.74347 10.4477C3.16337 18.6511 1.63386 26.6519 2.38517 34.5523C2.38726 34.5716 2.39326 34.5903 2.40282 34.6073C2.41237 34.6243 2.42528 34.6391 2.44075 34.6509C5.69771 37.0221 9.33042 38.8285 13.1868 39.9943C13.2136 40.0026 13.2424 40.0026 13.2693 39.9942C13.2961 39.9859 13.3199 39.9697 13.3374 39.9477C14.1658 38.836 14.9045 37.6615 15.5357 36.4278C15.5734 36.3561 15.5375 36.2701 15.4622 36.2414C14.3039 35.8052 13.1815 35.2788 12.1055 34.667C12.0862 34.656 12.0699 34.6403 12.0581 34.6214C12.0463 34.6026 12.0394 34.581 12.038 34.5588C12.0366 34.5366 12.0407 34.5144 12.05 34.4942C12.0592 34.4739 12.0734 34.4563 12.0912 34.4429C12.3171 34.2761 12.543 34.1022 12.7582 33.9283C12.7776 33.9126 12.8009 33.9027 12.8256 33.8995C12.8503 33.8963 12.8754 33.9001 12.8981 33.9103C19.9395 37.0734 27.5656 37.0734 34.5246 33.9103C34.5473 33.8995 34.5726 33.8952 34.5977 33.8981C34.6227 33.901 34.6465 33.9108 34.6662 33.9265C34.8814 34.1022 35.1055 34.2761 35.3332 34.4429C35.3512 34.456 35.3656 34.4734 35.3752 34.4935C35.3847 34.5135 35.3892 34.5356 35.3881 34.5579C35.3871 34.5801 35.3805 34.6017 35.369 34.6207C35.3576 34.6398 35.3416 34.6557 35.3225 34.667C34.2502 35.2839 33.1349 35.8056 31.964 36.2396C31.946 36.2461 31.9297 36.2564 31.916 36.2698C31.9023 36.2831 31.8916 36.2992 31.8846 36.3171C31.8777 36.3349 31.8746 36.354 31.8756 36.3731C31.8766 36.3922 31.8817 36.4109 31.8905 36.4278C32.536 37.6597 33.2748 38.8324 34.087 39.9459C34.1039 39.9687 34.1275 39.9858 34.1544 39.9948C34.1814 40.0038 34.2104 40.0042 34.2377 39.9961C38.1006 38.8335 41.7392 37.0263 44.9998 34.6509C45.0157 34.6398 45.0291 34.6254 45.0389 34.6087C45.0488 34.592 45.0551 34.5734 45.0572 34.5541C45.9537 25.4201 43.5546 17.4838 38.6935 10.4513C38.6816 10.4285 38.6618 10.4107 38.6379 10.4011ZM16.5882 29.7414C14.4688 29.7414 12.7205 27.8246 12.7205 25.4738C12.7205 23.1213 14.4347 21.2063 16.5882 21.2063C18.7579 21.2063 20.49 23.1374 20.4559 25.4738C20.4559 27.8264 18.7418 29.7414 16.5882 29.7414ZM30.8882 29.7414C28.7669 29.7414 27.0205 27.8246 27.0205 25.4738C27.0205 23.1213 28.7329 21.2063 30.8882 21.2063C33.0578 21.2063 34.7899 23.1374 34.7559 25.4738C34.7559 27.8264 33.0596 29.7414 30.8882 29.7414Z" fill="#505050"/>
<path d="M38.6378 10.4011L38.2267 11.3127L38.247 11.3219L38.2678 11.3301L38.6378 10.4011ZM29.8785 7.72941L29.69 8.71148L29.7009 8.71357L29.7118 8.71541L29.8785 7.72941ZM29.7369 7.79396L28.872 7.29187L28.8678 7.29935L29.7369 7.79396ZM28.6467 9.99947L28.4989 10.9885L29.2599 11.1022L29.5648 10.3957L28.6467 9.99947ZM18.808 9.99947L17.8906 10.3974L18.1962 11.102L18.9558 10.9885L18.808 9.99947ZM17.7017 7.79396L16.8323 8.28812L16.8342 8.2914L17.7017 7.79396ZM17.56 7.72582L17.4034 6.73811L17.3932 6.73984L17.56 7.72582ZM8.80079 10.3993L9.18757 11.3215L9.19994 11.3163L9.21217 11.3108L8.80079 10.3993ZM8.74341 10.4477L9.57025 11.0102L9.579 10.9973L9.58734 10.9842L8.74341 10.4477ZM2.38511 34.5523L1.38951 34.647L1.39089 34.6597L2.38511 34.5523ZM2.44069 34.6509L1.83398 35.4458L1.84297 35.4527L1.85211 35.4593L2.44069 34.6509ZM13.1867 39.9943L13.4809 39.0386L13.476 39.0371L13.1867 39.9943ZM13.3373 39.9477L14.12 40.5701L14.1297 40.5578L14.1391 40.5452L13.3373 39.9477ZM15.5356 36.4278L14.6502 35.963L14.6454 35.9724L15.5356 36.4278ZM15.4621 36.2414L15.8181 35.3069L15.8145 35.3055L15.4621 36.2414ZM12.1054 34.667L11.6097 35.5355L11.6112 35.5364L12.1054 34.667ZM12.0911 34.4429L11.4972 33.6383L11.4887 33.6447L12.0911 34.4429ZM12.7581 33.9283L12.1298 33.1503L12.1295 33.1506L12.7581 33.9283ZM12.898 33.9103L12.4863 34.8217L12.4882 34.8225L12.898 33.9103ZM34.5245 33.9103L34.9382 34.8207L34.9467 34.8169L34.9551 34.8128L34.5245 33.9103ZM34.6661 33.9265L35.2987 33.1519L35.2888 33.144L34.6661 33.9265ZM35.3331 34.4429L34.7423 35.2497L34.7424 35.2498L35.3331 34.4429ZM35.3224 34.667L35.8211 35.5339L35.8331 35.5268L35.3224 34.667ZM31.9639 36.2396L32.3052 37.1796L32.3114 37.1773L31.9639 36.2396ZM31.8904 36.4278L31.0025 36.8879L31.0046 36.892L31.8904 36.4278ZM34.0869 39.9459L33.279 40.5352L33.2827 40.5403L34.0869 39.9459ZM34.2376 39.9961L34.5243 40.9541L34.5257 40.9537L34.2376 39.9961ZM44.9997 34.6509L44.4267 33.8313L44.4187 33.8369L44.4109 33.8426L44.9997 34.6509ZM45.0571 34.5541L46.0512 34.6631L46.0523 34.6518L45.0571 34.5541ZM38.6934 10.4513L37.8067 10.9137L37.8354 10.9688L37.8708 11.0199L38.6934 10.4513ZM20.4558 25.4738L19.456 25.4593L19.4558 25.4666V25.4738H20.4558ZM34.7558 25.4738L33.7559 25.4593L33.7558 25.4666V25.4738H34.7558ZM39.0489 9.48953C36.2298 8.21817 33.2071 7.27807 30.0453 6.74341L29.7118 8.71541C32.7003 9.22075 35.5589 10.1096 38.2267 11.3127L39.0489 9.48953ZM30.0671 6.74734C29.836 6.70299 29.5969 6.73157 29.3828 6.82914L30.2121 8.64908C30.0488 8.72352 29.8663 8.74532 29.69 8.71148L30.0671 6.74734ZM29.3828 6.82914C29.1687 6.9267 28.9902 7.08841 28.8721 7.29189L30.6017 8.29603C30.5116 8.45127 30.3754 8.57465 30.2121 8.64908L29.3828 6.82914ZM28.8678 7.29935C28.4699 7.9985 28.0343 8.89471 27.7286 9.60321L29.5648 10.3957C29.8472 9.74147 30.2508 8.91272 30.606 8.28858L28.8678 7.29935ZM28.7945 9.01044C25.435 8.50851 22.0197 8.50851 18.6602 9.01044L18.9558 10.9885C22.1193 10.5158 25.3354 10.5158 28.4989 10.9885L28.7945 9.01044ZM19.7254 9.60154C19.3831 8.81233 18.9971 8.0428 18.5692 7.29652L16.8342 8.2914C17.2251 8.97323 17.5778 9.67632 17.8906 10.3974L19.7254 9.60154ZM18.571 7.29981C18.4566 7.09854 18.2836 6.93695 18.0749 6.8366L17.208 8.63893C17.05 8.56293 16.9189 8.44055 16.8323 8.28812L18.571 7.29981ZM18.0749 6.8366C17.8663 6.73625 17.6321 6.70191 17.4034 6.73816L17.7166 8.71349C17.5434 8.74095 17.366 8.71493 17.208 8.63893L18.0749 6.8366ZM17.3932 6.73984C14.2331 7.2745 11.2104 8.21462 8.38941 9.48786L9.21217 11.3108C11.8815 10.106 14.7402 9.21714 17.7268 8.71181L17.3932 6.73984ZM8.414 9.47716C8.20223 9.56598 8.02268 9.71747 7.89948 9.91128L9.58734 10.9842C9.49161 11.1348 9.35212 11.2525 9.18757 11.3215L8.414 9.47716ZM7.91657 9.8853C2.19727 18.2933 0.617636 26.5294 1.3896 34.6469L3.38061 34.4576C2.64996 26.7744 4.12935 19.0089 9.57025 11.0102L7.91657 9.8853ZM1.39089 34.6597C1.40756 34.8139 1.45543 34.9632 1.53161 35.0983L3.27391 34.1163C3.33097 34.2175 3.36684 34.3293 3.37932 34.4449L1.39089 34.6597ZM1.53161 35.0983C1.60777 35.2334 1.71064 35.3517 1.83398 35.4458L3.0474 33.856C3.1398 33.9265 3.21686 34.0151 3.27391 34.1163L1.53161 35.0983ZM1.85211 35.4593C5.19975 37.8966 8.9336 39.7532 12.8973 40.9515L13.476 39.0371C9.72711 37.9037 6.19555 36.1477 3.02927 33.8425L1.85211 35.4593ZM12.8924 40.95C13.1116 41.0175 13.3459 41.0173 13.5648 40.9495L12.9735 39.039C13.1387 38.9878 13.3155 38.9877 13.4809 39.0386L12.8924 40.95ZM13.5648 40.9495C13.7838 40.8817 13.9773 40.7495 14.12 40.5701L12.5546 39.3253C12.6622 39.1899 12.8082 39.0901 12.9735 39.039L13.5648 40.9495ZM14.1391 40.5452C14.9989 39.3913 15.7678 38.1696 16.4259 36.8833L14.6454 35.9724C14.0411 37.1534 13.3324 38.2806 12.5354 39.3502L14.1391 40.5452ZM16.421 36.8927C16.7558 36.2549 16.4159 35.5346 15.8181 35.3069L15.1061 37.1759C14.6589 37.0055 14.3907 36.4573 14.6502 35.963L16.421 36.8927ZM15.8145 35.3055C14.7051 34.8877 13.6302 34.3836 12.5996 33.7977L11.6112 35.5364C12.7327 36.1739 13.9024 36.7226 15.1097 37.1772L15.8145 35.3055ZM12.6012 33.7986C12.7256 33.8696 12.8304 33.9704 12.9063 34.0919L11.2097 35.1509C11.3091 35.3103 11.4466 35.4424 11.6097 35.5355L12.6012 33.7986ZM12.9063 34.0919C12.9822 34.2135 13.0267 34.352 13.0358 34.495L11.0399 34.6227C11.0519 34.8101 11.1103 34.9916 11.2097 35.1509L12.9063 34.0919ZM13.0358 34.495C13.045 34.638 13.0185 34.781 12.9587 34.9112L11.141 34.0771C11.0627 34.2478 11.0279 34.4353 11.0399 34.6227L13.0358 34.495ZM12.9587 34.9112C12.899 35.0414 12.8079 35.1548 12.6935 35.2411L11.4887 33.6447C11.3387 33.7579 11.2193 33.9064 11.141 34.0771L12.9587 34.9112ZM12.6849 35.2475C12.9216 35.0728 13.1592 34.8899 13.3867 34.706L12.1295 33.1506C11.9267 33.3145 11.7124 33.4795 11.4972 33.6383L12.6849 35.2475ZM13.3864 34.7063C13.2617 34.8069 13.1116 34.871 12.9527 34.8914L12.6983 32.9076C12.49 32.9343 12.2932 33.0183 12.1298 33.1503L13.3864 34.7063ZM12.9527 34.8914C12.7937 34.9118 12.6323 34.8876 12.4863 34.8217L13.3097 32.999C13.1183 32.9126 12.9066 32.8809 12.6983 32.9076L12.9527 34.8914ZM12.4882 34.8225C19.7888 38.1019 27.7148 38.1039 34.9382 34.8207L34.1107 33C27.4161 36.0428 20.0901 36.0448 13.3077 32.9982L12.4882 34.8225ZM34.9551 34.8128C34.8087 34.8827 34.6456 34.91 34.4844 34.8917L34.7108 32.9045C34.4995 32.8805 34.2857 32.9163 34.0938 33.0078L34.9551 34.8128ZM34.4844 34.8917C34.3232 34.8733 34.1704 34.81 34.0435 34.709L35.2888 33.144C35.1223 33.0115 34.922 32.9286 34.7108 32.9045L34.4844 34.8917ZM34.0336 34.701C34.2617 34.8873 34.4997 35.0721 34.7423 35.2497L35.9239 33.6361C35.7111 33.4802 35.5009 33.3171 35.2986 33.152L34.0336 34.701ZM34.7424 35.2498C34.627 35.1653 34.5343 35.0534 34.4726 34.9243L36.2775 34.0626C36.1967 33.8934 36.0752 33.7468 35.9238 33.636L34.7424 35.2498ZM34.4726 34.9243C34.411 34.7952 34.3823 34.6528 34.3892 34.5099L36.3869 34.6058C36.3959 34.4185 36.3583 34.2318 36.2775 34.0626L34.4726 34.9243ZM34.3892 34.5099C34.396 34.367 34.4382 34.228 34.512 34.1054L36.2259 35.136C36.3226 34.9753 36.3779 34.7931 36.3869 34.6058L34.3892 34.5099ZM34.512 34.1054C34.5857 33.9828 34.6886 33.8803 34.8117 33.8073L35.8331 35.5268C35.9943 35.431 36.1293 35.2967 36.2259 35.136L34.512 34.1054ZM34.8237 33.8002C33.8005 34.3888 32.7358 34.887 31.6164 35.3019L32.3114 37.1773C33.5338 36.7242 34.6997 36.1789 35.821 35.5338L34.8237 33.8002ZM31.6227 35.2996C31.471 35.3546 31.3328 35.4414 31.2173 35.5542L32.6144 36.9853C32.5263 37.0713 32.4208 37.1376 32.3052 37.1795L31.6227 35.2996ZM31.2173 35.5542C31.1018 35.667 31.0117 35.803 30.953 35.9533L32.816 36.6808C32.7713 36.7955 32.7025 36.8993 32.6144 36.9853L31.2173 35.5542ZM30.953 35.9533C30.8943 36.1037 30.8684 36.2648 30.8769 36.4259L32.8741 36.3202C32.8806 36.4431 32.8608 36.5661 32.816 36.6808L30.953 35.9533ZM30.8769 36.4259C30.8854 36.5871 30.9283 36.7446 31.0025 36.8879L32.7783 35.9678C32.8349 36.0771 32.8676 36.1973 32.8741 36.3202L30.8769 36.4259ZM31.0046 36.892C31.6746 38.1706 32.4399 39.3849 33.279 40.5352L34.8948 39.3566C34.1094 38.2798 33.3972 37.1488 32.7762 35.9637L31.0046 36.892ZM33.2827 40.5403C33.422 40.7286 33.6159 40.8694 33.8381 40.9435L34.4705 39.0461C34.6388 39.1022 34.7857 39.2088 34.8911 39.3515L33.2827 40.5403ZM33.8381 40.9435C34.0602 41.0175 34.2999 41.0213 34.5243 40.9541L33.9508 39.0381C34.1208 38.9872 34.3023 38.99 34.4705 39.0461L33.8381 40.9435ZM34.5257 40.9537C38.4966 39.7586 42.2369 37.9009 45.5885 35.4591L44.4109 33.8426C41.2414 36.1517 37.7044 37.9084 33.9494 39.0385L34.5257 40.9537ZM45.5727 35.4705C45.7053 35.3777 45.8166 35.2577 45.8991 35.1185L44.1786 34.0989C44.2413 33.9931 44.3259 33.9018 44.4267 33.8313L45.5727 35.4705ZM45.8991 35.1185C45.9817 34.9792 46.0335 34.824 46.0511 34.6631L44.063 34.445C44.0764 34.3228 44.1158 34.2047 44.1786 34.0989L45.8991 35.1185ZM46.0523 34.6518C46.9738 25.2635 44.5005 17.0939 39.516 9.88271L37.8708 11.0199C42.6084 17.8738 44.9334 25.5766 44.0619 34.4564L46.0523 34.6518ZM39.5801 9.98897C39.4574 9.75369 39.2543 9.57028 39.0078 9.4721L38.2678 11.3301C38.0692 11.251 37.9055 11.1033 37.8067 10.9137L39.5801 9.98897ZM16.5881 28.7414C15.1095 28.7414 13.7204 27.3652 13.7204 25.4738H11.7204C11.7204 28.284 13.8279 30.7414 16.5881 30.7414V28.7414ZM13.7204 25.4738C13.7204 23.575 15.0806 22.2063 16.5881 22.2063V20.2063C13.7887 20.2063 11.7204 22.6676 11.7204 25.4738H13.7204ZM16.5881 22.2063C18.1191 22.2063 19.4831 23.5966 19.456 25.4593L21.4557 25.4884C21.4967 22.6783 19.3965 20.2063 16.5881 20.2063V22.2063ZM19.4558 25.4738C19.4558 27.3727 18.0957 28.7414 16.5881 28.7414V30.7414C19.3876 30.7414 21.4558 28.2801 21.4558 25.4738H19.4558ZM30.8881 28.7414C29.4079 28.7414 28.0204 27.3655 28.0204 25.4738H26.0204C26.0204 28.2837 28.1257 30.7414 30.8881 30.7414V28.7414ZM28.0204 25.4738C28.0204 23.5747 29.379 22.2063 30.8881 22.2063V20.2063C28.0865 20.2063 26.0204 22.6679 26.0204 25.4738H28.0204ZM30.8881 22.2063C32.419 22.2063 33.783 23.5966 33.7559 25.4593L35.7557 25.4884C35.7966 22.6783 33.6964 20.2063 30.8881 20.2063V22.2063ZM33.7558 25.4738C33.7558 27.3759 32.4107 28.7414 30.8881 28.7414V30.7414C33.7083 30.7414 35.7558 28.2769 35.7558 25.4738H33.7558Z" fill="white"/>
</g>
</svg>
