<svg width="13" height="13" viewBox="0 0 13 13" fill="none" xmlns="http://www.w3.org/2000/svg">
<path d="M6.95 5.75C6.65 5.675 6.35 5.525 6.125 5.3C5.9 5.225 5.825 5 5.825 4.85C5.825 4.7 5.9 4.475 6.05 4.4C6.275 4.25 6.5 4.1 6.725 4.175C7.175 4.175 7.55 4.4 7.775 4.7L8.45 3.8C8.225 3.575 8 3.425 7.775 3.275C7.55 3.125 7.25 3.05 6.95 3.05V2H6.05V3.05C5.675 3.125 5.3 3.35 5 3.65C4.7 4.025 4.475 4.475 4.55 4.925C4.55 5.375 4.7 5.825 5 6.125C5.375 6.5 5.9 6.725 6.35 6.95C6.575 7.025 6.875 7.175 7.1 7.325C7.25 7.475 7.325 7.7 7.325 7.925C7.325 8.15 7.25 8.375 7.1 8.6C6.875 8.825 6.575 8.9 6.35 8.9C6.05 8.9 5.675 8.825 5.45 8.6C5.225 8.45 5 8.225 4.85 8L4.1 8.825C4.325 9.125 4.55 9.35 4.85 9.575C5.225 9.8 5.675 10.025 6.125 10.025V11H6.95V9.875C7.4 9.8 7.775 9.575 8.075 9.275C8.45 8.9 8.675 8.3 8.675 7.775C8.675 7.325 8.525 6.8 8.15 6.5C7.775 6.125 7.4 5.9 6.95 5.75V5.75ZM6.5 0.5C3.2 0.5 0.5 3.2 0.5 6.5C0.5 9.8 3.2 12.5 6.5 12.5C9.8 12.5 12.5 9.8 12.5 6.5C12.5 3.2 9.8 0.5 6.5 0.5ZM6.5 11.675C3.65 11.675 1.325 9.35 1.325 6.5C1.325 3.65 3.65 1.325 6.5 1.325C9.35 1.325 11.675 3.65 11.675 6.5C11.675 9.35 9.35 11.675 6.5 11.675V11.675Z" fill="#757575"/>
</svg>
