<svg width="14" height="14" viewBox="0 0 14 14" fill="none" xmlns="http://www.w3.org/2000/svg">
<path d="M7.00005 1.3999C4.68305 1.3999 2.80005 3.2829 2.80005 5.5999C2.80005 7.0139 3.61905 8.1969 4.57105 9.0229C4.87205 9.2819 5.39705 9.6949 5.86605 10.3039C6.38405 10.9829 6.85305 11.7109 7.00005 12.2009C7.14705 11.7109 7.61605 10.9829 8.13405 10.3039C8.60305 9.6949 9.12805 9.2819 9.42905 9.0229C10.381 8.1969 11.2 7.0139 11.2 5.5999C11.2 3.2829 9.31705 1.3999 7.00005 1.3999ZM7.00005 3.1919C7.31627 3.1919 7.6294 3.25419 7.92155 3.3752C8.2137 3.49621 8.47916 3.67359 8.70276 3.89719C8.92637 4.12079 9.10374 4.38625 9.22475 4.6784C9.34576 4.97055 9.40805 5.28368 9.40805 5.5999C9.40805 5.91613 9.34576 6.22925 9.22475 6.5214C9.10374 6.81356 8.92637 7.07901 8.70276 7.30262C8.47916 7.52622 8.2137 7.70359 7.92155 7.8246C7.6294 7.94562 7.31627 8.0079 7.00005 8.0079C6.36141 8.0079 5.74892 7.7542 5.29734 7.30262C4.84575 6.85103 4.59205 6.23854 4.59205 5.5999C4.59205 4.96126 4.84575 4.34878 5.29734 3.89719C5.74892 3.4456 6.36141 3.1919 7.00005 3.1919Z" fill="#E8E8E8"/>
</svg>
