<svg width="292" height="254" viewBox="0 0 292 254" fill="none" xmlns="http://www.w3.org/2000/svg">
<path d="M45 63.5V170L70.5 192.5M45 63.5L70.5 50M45 63.5L112 138.5L192 131.5M192 231.5V131.5M192 231.5L215.5 216V105.5M192 231.5L152 216V175.5H107.5L93 162.568M192 131.5L215.5 105.5M215.5 105.5L132.5 116M70.5 50L132.5 116M70.5 50L125.5 22L175 76L160 89L135.5 63.5L121 73L147.5 101.5L132.5 116M70.5 192.5V142.5L93 162.568M70.5 192.5L93 180.5V162.568" stroke="black" stroke-width="6"/>
<path d="M70.5 50L132.5 116L147.5 101.5L121 73L135.5 63.5L160 89L175 76L125.5 22L70.5 50Z" fill="#00FFC2" stroke="black" stroke-width="6"/>
<path d="M113 62L104.5 53L119 44.5L127.5 53L113 62Z" fill="white" stroke="black" stroke-width="6"/>
<path d="M138 114.5L177 76.5L247 69.5V193L216 215L215.5 105.5L138 114.5Z" fill="#FF79C9"/>
<path d="M247 69.5L177 76.5L138 114.5L215.5 105.5M247 69.5L215.5 105.5M247 69.5V193L216 215L215.5 105.5" stroke="black" stroke-width="6"/>
<path d="M177 76.5L138 114.5L215 104.5L243.5 70L177 76.5Z" fill="#FF79C9" stroke="black" stroke-width="6"/>
<path d="M209.5 94.5L172 100L177.823 93.746C182.772 88.4299 189.482 85.0901 196.707 84.3463L210.003 82.9777C213.532 82.6144 215.752 86.6849 213.536 89.4554L209.5 94.5Z" fill="white" stroke="black" stroke-width="6"/>
<path d="M45 171V64.5L70.5 51L132.5 117L215.5 106.5V217L192 232.5L152 217V176.5H107.5L93 163.568V181.5L70.5 193.5L45 171Z" fill="white"/>
<path d="M45 64.5V171L70.5 193.5M45 64.5L70.5 51L132.5 117L215.5 106.5M45 64.5L112 139.5L192 132.5M192 232.5V132.5M192 232.5L215.5 217V106.5M192 232.5L152 217V176.5H107.5L93 163.568M192 132.5L215.5 106.5M70.5 193.5V143.5L93 163.568M70.5 193.5L93 181.5V163.568" stroke="black" stroke-width="6"/>
</svg>
