<svg width="19" height="19" viewBox="0 0 19 19" fill="none" xmlns="http://www.w3.org/2000/svg">
<path d="M3.69423 3.16688H12.1387V8.33911H13.1942V3.16688C13.1942 2.88693 13.083 2.61845 12.8851 2.42049C12.6871 2.22254 12.4186 2.11133 12.1387 2.11133H3.69423C3.41428 2.11133 3.14579 2.22254 2.94784 2.42049C2.74988 2.61845 2.63867 2.88693 2.63867 3.16688V15.8336C2.63867 16.1135 2.74988 16.382 2.94784 16.5799C3.14579 16.7779 3.41428 16.8891 3.69423 16.8891H12.1387C12.4186 16.8891 12.6871 16.7779 12.8851 16.5799C13.083 16.382 13.1942 16.1135 13.1942 15.8336H3.69423V3.16688Z" fill="#757575"/>
<path d="M14.8625 9.12007C14.7615 9.03361 14.6317 8.98843 14.4988 8.99356C14.366 8.99869 14.24 9.05375 14.146 9.14775C14.052 9.24174 13.997 9.36774 13.9918 9.50057C13.9867 9.6334 14.0319 9.76327 14.1183 9.86424L15.9022 11.6112H8.24946C8.10948 11.6112 7.97524 11.6668 7.87626 11.7658C7.77728 11.8647 7.72168 11.999 7.72168 12.139C7.72168 12.2789 7.77728 12.4132 7.87626 12.5122C7.97524 12.6111 8.10948 12.6667 8.24946 12.6667H15.9022L14.1183 14.4928C14.0631 14.5402 14.0182 14.5984 13.9865 14.6639C13.9549 14.7293 13.9371 14.8007 13.9343 14.8733C13.9315 14.946 13.9437 15.0185 13.9702 15.0862C13.9968 15.154 14.037 15.2155 14.0884 15.2669C14.1399 15.3183 14.2014 15.3586 14.2691 15.3851C14.3368 15.4117 14.4093 15.4239 14.482 15.4211C14.5547 15.4183 14.626 15.4005 14.6915 15.3688C14.757 15.3371 14.8152 15.2923 14.8625 15.237L17.9447 12.1759L14.8625 9.12007Z" fill="#757575"/>
</svg>
