<svg width="48" height="48" viewBox="0 0 48 48" fill="none" xmlns="http://www.w3.org/2000/svg">
<path d="M5.83415 39.3766C5.79487 39.3766 5.7556 39.3765 5.71633 39.3762L5.83415 39.3766ZM5.83415 39.3766L4.83228 38.889C5.12374 39.0578 5.41849 39.2203 5.71633 39.3762" fill="#171617"/>
<path d="M5.83415 39.3766C9.77288 39.3822 13.6002 38.0848 16.7003 35.6914L17.7367 34.8913L16.4298 34.8676C14.7442 34.8373 13.1115 34.2893 11.7601 33.3016C10.6156 32.4652 9.72175 31.3492 9.16267 30.0715C10.2553 30.1795 11.361 30.0907 12.4254 29.8075L12.397 28.9126C10.5689 28.5493 8.92686 27.5756 7.74843 26.1589C6.70853 24.9088 6.08589 23.3814 5.9541 21.7839C7.01241 22.2482 8.15435 22.507 9.31688 22.5434L10.9437 22.5943L9.5815 21.6996C8.47685 20.9741 7.5724 19.9924 6.94754 18.8422C6.3227 17.692 5.9965 16.4084 5.99726 15.1055C5.99726 13.8885 6.27795 12.7339 6.77852 11.6995C8.8822 14.1056 11.4464 16.0836 14.3269 17.5198C17.4105 19.0572 20.7878 19.9396 24.2398 20.1101L24.8493 20.1402L24.7071 19.5441C24.3021 17.8465 24.4781 16.0649 25.2085 14.4751C25.9389 12.8852 27.1836 11.5749 28.7513 10.7495C30.319 9.92399 32.1209 9.63026 33.8768 9.91478C35.6327 10.1993 37.2423 11.0457 38.4565 12.3207L38.6287 12.5015L38.8734 12.4543C40.4051 12.1586 41.8879 11.6626 43.2826 10.9809C42.5977 12.3122 41.54 13.4362 40.2209 14.2124L40.5055 15.0652C41.7229 14.9217 42.9 14.6585 44.0269 14.2856C43.0988 15.4073 42.0239 16.4067 40.8283 17.2571L40.6241 17.4023L40.6357 17.6532C40.6518 18.0068 40.6607 18.3632 40.6607 18.7154C40.6607 29.5863 32.2489 42.1072 16.8644 42.1072C12.9664 42.1115 9.1382 41.1687 5.71633 39.3762L5.83415 39.3766ZM5.83415 39.3766C5.79487 39.3766 5.7556 39.3765 5.71633 39.3762L5.83415 39.3766ZM5.83415 39.3766L5.71633 39.3762L5.83415 39.3766ZM5.83415 39.3766L4.83228 38.889C5.12374 39.0578 5.41849 39.2203 5.71633 39.3762" fill="#505050"/>
<path d="M5.83415 39.3766L4.83228 38.889C5.12374 39.0578 5.41849 39.2203 5.71633 39.3762M5.83415 39.3766C9.77288 39.3822 13.6002 38.0848 16.7003 35.6914L17.7367 34.8913L16.4298 34.8676C14.7442 34.8373 13.1115 34.2893 11.7601 33.3016C10.6156 32.4652 9.72175 31.3492 9.16267 30.0715C10.2553 30.1795 11.361 30.0907 12.4254 29.8075L12.397 28.9126C10.5689 28.5493 8.92686 27.5756 7.74843 26.1589C6.70853 24.9088 6.08589 23.3814 5.9541 21.7839C7.01241 22.2482 8.15435 22.507 9.31688 22.5434L10.9437 22.5943L9.5815 21.6996C8.47685 20.9741 7.5724 19.9924 6.94754 18.8422C6.3227 17.692 5.9965 16.4084 5.99726 15.1055C5.99726 13.8885 6.27795 12.7339 6.77852 11.6995C8.8822 14.1056 11.4464 16.0836 14.3269 17.5198C17.4105 19.0572 20.7878 19.9396 24.2398 20.1101L24.8493 20.1402L24.7071 19.5441C24.3021 17.8465 24.4781 16.0649 25.2085 14.4751C25.9389 12.8852 27.1836 11.5749 28.7513 10.7495C30.319 9.92399 32.1209 9.63026 33.8768 9.91478C35.6327 10.1993 37.2423 11.0457 38.4565 12.3207L38.6287 12.5015L38.8734 12.4543C40.4051 12.1586 41.8879 11.6626 43.2826 10.9809C42.5977 12.3122 41.54 13.4362 40.2209 14.2124L40.5055 15.0652C41.7229 14.9217 42.9 14.6585 44.0269 14.2856C43.0988 15.4073 42.0239 16.4067 40.8283 17.2571L40.6241 17.4023L40.6357 17.6532C40.6518 18.0068 40.6607 18.3632 40.6607 18.7154C40.6607 29.5863 32.2489 42.1072 16.8644 42.1072C12.9664 42.1115 9.1382 41.1687 5.71633 39.3762L5.83415 39.3766ZM5.83415 39.3766C5.79487 39.3766 5.7556 39.3765 5.71633 39.3762L5.83415 39.3766ZM5.83415 39.3766L5.71633 39.3762L5.83415 39.3766Z" stroke="white"/>
</svg>
